# 3ds Max Wavefront OBJ Exporter v0.97b - (c)2007 guruware
# File Created: 30.10.2020 21:28:39

mtllib red_cube_decoration.mtl

#
# object red_cube
#

v  0.0097 0.6476 -1.0591
v  0.9574 1.4684 -0.5852
v  0.9574 0.7982 0.5755
v  0.0097 -0.0226 0.1017
v  0.9574 1.4851 -0.5755
v  0.0097 2.3059 -0.1017
v  0.0097 1.6357 1.0591
v  0.9574 0.8150 0.5852
v  -0.0097 2.3059 -0.1017
v  -0.9574 1.4851 -0.5755
v  -0.9574 0.8150 0.5852
v  -0.0097 1.6357 1.0591
v  -0.9574 1.4684 -0.5852
v  -0.0097 0.6476 -1.0591
v  -0.0097 -0.0226 0.1017
v  -0.9574 0.7982 0.5755
v  0.0000 0.5460 0.4299
v  -0.0000 1.2162 -0.7308
v  -0.1151 1.2360 -0.7194
v  -0.1151 0.5659 0.4414
v  0.1151 0.5659 0.4414
v  0.1151 1.2360 -0.7194
v  0.2128 0.6223 0.4740
v  0.2128 1.2925 -0.6868
v  0.2780 0.7069 0.5228
v  0.2780 1.3770 -0.6379
v  0.3009 0.8066 0.5804
v  0.3009 1.4768 -0.5804
v  0.2780 0.9063 0.6379
v  0.2780 1.5765 -0.5228
v  0.2128 0.9908 0.6868
v  0.2128 1.6610 -0.4740
v  0.1151 1.0473 0.7194
v  0.1151 1.7175 -0.4414
v  0.0000 1.0672 0.7308
v  -0.0000 1.7373 -0.4299
v  -0.1151 1.0473 0.7194
v  -0.1151 1.7175 -0.4414
v  -0.2128 0.9908 0.6868
v  -0.2128 1.6610 -0.4740
v  -0.2780 0.9063 0.6379
v  -0.2780 1.5765 -0.5228
v  -0.3009 0.8066 0.5804
v  -0.3009 1.4768 -0.5804
v  -0.2780 0.7069 0.5228
v  -0.2780 1.3770 -0.6379
v  -0.2128 0.6223 0.4740
v  -0.2128 1.2925 -0.6868
v  0.1205 1.2317 -0.7377
v  -0.0000 0.6628 -1.0661
v  -0.0000 1.2109 -0.7496
v  -0.2909 0.9041 0.6525
v  -0.9478 0.7998 0.5922
v  -0.3148 0.7998 0.5922
v  -0.9478 1.4836 -0.5922
v  0.0037 2.3097 -0.1153
v  0.9478 1.4836 -0.5922
v  0.0000 -0.0210 0.1183
v  0.9539 0.7965 0.5904
v  0.0000 1.6205 1.0661
v  0.1205 1.7355 -0.4468
v  -0.0000 1.7562 -0.4348
v  0.3148 0.7998 0.5922
v  0.2909 0.6954 0.5320
v  -0.1205 0.5479 0.4468
v  0.0000 0.5271 0.4348
v  0.2226 1.2908 -0.7035
v  0.2909 1.3793 -0.6525
v  0.3148 1.4836 -0.5922
v  0.2909 1.5879 -0.5320
v  0.2208 1.6756 -0.4806
v  -0.1205 1.7355 -0.4468
v  -0.2226 1.6764 -0.4809
v  -0.2909 1.5879 -0.5320
v  -0.3148 1.4836 -0.5922
v  -0.2909 1.3793 -0.6525
v  -0.2226 1.2908 -0.7035
v  -0.1205 1.2317 -0.7377
v  -0.2226 0.9926 0.7035
v  -0.1205 1.0517 0.7377
v  0.0000 1.0724 0.7496
v  -0.2909 0.6954 0.5320
v  -0.2226 0.6070 0.4809
v  0.1205 1.0517 0.7377
v  0.2226 0.9926 0.7035
v  0.2909 0.9041 0.6525
v  0.1205 0.5479 0.4468
v  0.2186 0.6072 0.4809
v  0.2200 0.0200 -0.2200
v  -0.2200 0.0200 -0.2200
v  -0.2200 0.0200 0.2200
v  0.2200 0.0200 0.2200
v  1.1000 0.0200 -0.2200
v  0.6600 0.0200 -0.2200
v  0.6600 0.0200 0.2200
v  1.1000 0.0200 0.2200
v  -1.1000 0.0200 0.2200
v  -0.6600 0.0200 0.2200
v  -0.6600 0.0200 -0.2200
v  -1.1000 0.0200 -0.2200
v  0.2200 0.0200 -1.1000
v  -0.2200 0.0200 -1.1000
v  -0.2200 0.0200 -0.6600
v  0.2200 0.0200 -0.6600
v  -0.2200 0.0200 1.1000
v  0.2200 0.0200 1.1000
v  0.2200 0.0200 0.6600
v  -0.2200 0.0200 0.6600
v  1.1000 0.0200 -1.1000
v  0.6600 0.0200 -1.1000
v  0.6600 0.0200 -0.6600
v  1.1000 0.0200 -0.6600
v  0.6600 0.0200 1.1000
v  1.1000 0.0200 1.1000
v  1.1000 0.0200 0.6600
v  0.6600 0.0200 0.6600
v  -1.1000 0.0200 1.1000
v  -0.6600 0.0200 1.1000
v  -0.6600 0.0200 0.6600
v  -1.1000 0.0200 0.6600
v  -0.6600 0.0200 -1.1000
v  -1.1000 0.0200 -1.1000
v  -1.1000 0.0200 -0.6600
v  -0.6600 0.0200 -0.6600
v  -1.1000 -0.0000 -1.1000
v  -1.1000 -0.0000 -0.6600
v  1.1000 0.0000 -1.1000
v  0.6600 -0.0000 -1.1000
v  1.1000 -0.0000 1.1000
v  1.1000 -0.0000 0.6600
v  -1.1000 -0.0000 1.1000
v  -0.6600 -0.0000 1.1000
v  0.2200 -0.0000 -1.1000
v  -0.2200 -0.0000 -1.1000
v  -0.6600 -0.0000 -1.1000
v  -0.2200 -0.0000 1.1000
v  0.2200 -0.0000 1.1000
v  0.6600 -0.0000 1.1000
v  -1.1000 -0.0000 -0.2200
v  -1.1000 -0.0000 0.2200
v  -1.1000 -0.0000 0.6600
v  1.1000 -0.0000 0.2200
v  1.1000 0.0000 -0.2200
v  1.1000 0.0000 -0.6600
# 144 vertices

vn 0.7071 -0.6124 -0.3536
vn 0.7071 0.6124 0.3536
vn -0.7071 0.6124 0.3536
vn -0.7071 -0.6124 -0.3536
vn 0.0000 0.8660 0.5000
vn 0.3827 0.8001 0.4619
vn -0.3827 0.8001 0.4619
vn -0.9239 0.3314 0.1913
vn -1.0000 -0.0000 0.0000
vn -1.0000 -0.0000 -0.0000
vn -0.9239 -0.3314 -0.1913
vn -0.3827 -0.8001 -0.4619
vn -0.0000 -0.8660 -0.5000
vn 0.3827 -0.8001 -0.4619
vn 0.9239 -0.3314 -0.1913
vn 1.0000 0.0000 -0.0000
vn 0.9239 0.3314 0.1913
vn -0.0000 0.5000 -0.8660
vn 0.0000 -0.5000 0.8660
vn 0.0000 -0.4184 -0.9082
vn -0.8165 0.2887 -0.5000
vn 0.0000 0.9628 0.2702
vn 0.8165 0.2887 -0.5000
vn 0.0000 -0.9958 0.0917
vn 0.9689 -0.1237 0.2143
vn 0.0000 0.4184 0.9082
vn -0.8165 -0.2887 0.5000
vn 0.5657 -0.7911 0.2328
vn 0.0000 -0.8660 -0.5000
vn 0.5158 0.1055 0.8502
vn -0.5000 0.0795 0.8624
vn -0.5000 -0.7866 0.3624
vn 0.5000 -0.0795 -0.8624
vn 0.5687 0.7885 -0.2343
vn -0.5165 0.7885 -0.3340
vn -0.5000 -0.0795 -0.8624
vn -0.2695 -0.2027 -0.9414
vn -0.2704 -0.2038 -0.9409
vn -0.0000 -0.2494 -0.9684
vn -0.7002 -0.3570 0.6183
vn -0.6469 -0.1249 0.7523
vn -0.6508 -0.1203 0.7497
vn 0.2680 0.2033 0.9417
vn 0.0000 0.2494 0.9684
vn -0.2680 0.9172 -0.2948
vn 0.0000 0.9634 -0.2682
vn -0.4951 0.7858 -0.3707
vn -0.6469 0.5890 -0.4843
vn -0.7002 0.3570 -0.6183
vn -0.6469 0.1249 -0.7523
vn -0.6484 0.1237 -0.7512
vn -0.5138 -0.0988 -0.8522
vn -0.5079 -0.1039 -0.8551
vn 0.2680 -0.2033 -0.9417
vn 0.4951 -0.0718 -0.8658
vn 0.6469 0.1249 -0.7523
vn 0.7002 0.3570 -0.6183
vn 0.6469 0.5890 -0.4843
vn 0.4951 0.7858 -0.3707
vn 0.2680 0.9172 -0.2948
vn 0.7002 -0.3570 0.6183
vn 0.6469 -0.5890 0.4843
vn 0.4951 -0.7858 0.3707
vn 0.2680 -0.9172 0.2948
vn 0.0000 -0.9634 0.2682
vn 0.6469 -0.1249 0.7523
vn 0.4951 0.0718 0.8658
vn -0.2680 -0.9172 0.2948
vn -0.4951 -0.7858 0.3707
vn -0.6469 -0.5890 0.4843
vn -0.2736 0.2013 0.9406
vn -0.2754 0.2047 0.9393
vn -0.5311 0.1687 0.8303
vn -0.5510 0.1548 0.8200
vn -0.0000 1.0000 -0.0000
vn -0.0000 1.0000 0.0000
vn 0.0000 1.0000 -0.0000
vn 0.0000 1.0000 0.0000
vn -1.0000 0.0000 0.0000
vn -0.0000 -0.0000 -1.0000
vn 0.0000 -0.0000 1.0000
vn -0.0000 0.0000 -1.0000
vn 0.0000 0.0000 -1.0000
vn 0.0000 0.0000 1.0000
vn -1.0000 0.0000 -0.0000
vn 1.0000 0.0000 0.0000
vn 1.0000 -0.0000 0.0000
vn 1.0000 -0.0000 -0.0000
vn 0.0014 -0.5002 0.8659
vn -0.0002 -0.4999 0.8661
vn -0.0000 -0.5000 0.8660
vn 0.0000 0.5000 -0.8660
vn -0.0004 0.4991 -0.8666
vn 0.0014 0.5068 -0.8621
# 94 vertex normals

vt 0.0898 0.7729 0.0000
vt 0.0898 0.8392 0.0000
vt 0.0235 0.8392 0.0000
vt 0.0235 0.7729 0.0000
vt 0.0898 0.8416 0.0000
vt 0.0898 0.9079 0.0000
vt 0.0235 0.9079 0.0000
vt 0.0235 0.8416 0.0000
vt 0.1583 0.9071 0.0000
vt 0.0921 0.9071 0.0000
vt 0.0921 0.8409 0.0000
vt 0.1583 0.8409 0.0000
vt 0.0890 0.9758 0.0000
vt 0.0228 0.9758 0.0000
vt 0.0228 0.9096 0.0000
vt 0.0890 0.9096 0.0000
vt 0.2806 0.8845 0.0000
vt 0.3919 0.8845 0.0000
vt 0.3919 0.8926 0.0000
vt 0.2806 0.8926 0.0000
vt 0.3931 0.8093 0.0000
vt 0.2817 0.8093 0.0000
vt 0.2817 0.8012 0.0000
vt 0.3931 0.8012 0.0000
vt 0.2817 0.7916 0.0000
vt 0.3931 0.7916 0.0000
vt 0.2817 0.7821 0.0000
vt 0.3931 0.7821 0.0000
vt 0.2817 0.7740 0.0000
vt 0.3931 0.7740 0.0000
vt 0.2806 0.8462 0.0000
vt 0.2806 0.8381 0.0000
vt 0.3920 0.8381 0.0000
vt 0.3920 0.8462 0.0000
vt 0.2806 0.8285 0.0000
vt 0.3920 0.8285 0.0000
vt 0.2806 0.8189 0.0000
vt 0.3920 0.8189 0.0000
vt 0.2806 0.8108 0.0000
vt 0.3920 0.8108 0.0000
vt 0.2806 0.8830 0.0000
vt 0.2806 0.8749 0.0000
vt 0.3919 0.8749 0.0000
vt 0.3919 0.8830 0.0000
vt 0.2806 0.8654 0.0000
vt 0.3919 0.8654 0.0000
vt 0.2806 0.8558 0.0000
vt 0.3919 0.8558 0.0000
vt 0.2806 0.8477 0.0000
vt 0.3919 0.8477 0.0000
vt 0.3919 0.9199 0.0000
vt 0.2806 0.9199 0.0000
vt 0.2806 0.9118 0.0000
vt 0.3919 0.9118 0.0000
vt 0.2806 0.9022 0.0000
vt 0.3919 0.9022 0.0000
vt 0.1879 0.8196 0.0000
vt 0.1609 0.8382 0.0000
vt 0.1829 0.8162 0.0000
vt 0.1115 0.8000 0.0000
vt 0.0928 0.7729 0.0000
vt 0.1149 0.7950 0.0000
vt 0.0926 0.9119 0.0000
vt 0.0930 0.9127 0.0000
vt 0.0921 0.9127 0.0000
vt 0.0930 0.9102 0.0000
vt 0.0921 0.9102 0.0000
vt 0.0926 0.9094 0.0000
vt 0.1641 0.8416 0.0000
vt 0.1632 0.8416 0.0000
vt 0.1635 0.8409 0.0000
vt 0.1611 0.8409 0.0000
vt 0.1615 0.8417 0.0000
vt 0.1606 0.8417 0.0000
vt 0.0956 0.9119 0.0000
vt 0.0951 0.9127 0.0000
vt 0.0947 0.9119 0.0000
vt 0.0982 0.9094 0.0000
vt 0.0976 0.9101 0.0000
vt 0.0973 0.9094 0.0000
vt 0.0956 0.9094 0.0000
vt 0.0951 0.9102 0.0000
vt 0.0947 0.9094 0.0000
vt 0.1615 0.8434 0.0000
vt 0.1611 0.8442 0.0000
vt 0.1606 0.8434 0.0000
vt 0.0228 0.8393 0.0000
vt 0.0228 0.7729 0.0000
vt 0.0235 0.7722 0.0000
vt 0.0898 0.7722 0.0000
vt 0.0228 0.9079 0.0000
vt 0.0228 0.8412 0.0000
vt 0.0235 0.8409 0.0000
vt 0.0898 0.8409 0.0000
vt 0.0921 0.7729 0.0000
vt 0.0928 0.8390 0.0000
vt 0.0921 0.8390 0.0000
vt 0.1590 0.8409 0.0000
vt 0.1590 0.9071 0.0000
vt 0.1589 0.7722 0.0000
vt 0.1589 0.7729 0.0000
vt 0.0928 0.7722 0.0000
vt 0.0897 0.9096 0.0000
vt 0.0897 0.9758 0.0000
vt 0.0905 0.7729 0.0000
vt 0.0905 0.8392 0.0000
vt 0.0904 0.8416 0.0000
vt 0.0904 0.9080 0.0000
vt 0.1586 0.9078 0.0000
vt 0.0921 0.9078 0.0000
vt 0.0890 0.9765 0.0000
vt 0.0228 0.9765 0.0000
vt 0.3215 0.9783 0.0000
vt 0.3210 0.9771 0.0000
vt 0.3302 0.9710 0.0000
vt 0.3311 0.9719 0.0000
vt 0.3918 0.9278 0.0000
vt 0.3909 0.9287 0.0000
vt 0.3817 0.9226 0.0000
vt 0.3822 0.9214 0.0000
vt 0.3448 0.9379 0.0000
vt 0.3436 0.9374 0.0000
vt 0.3500 0.9278 0.0000
vt 0.3509 0.9287 0.0000
vt 0.2841 0.9402 0.0000
vt 0.2828 0.9397 0.0000
vt 0.2893 0.9301 0.0000
vt 0.2902 0.9310 0.0000
vt 0.2819 0.9510 0.0000
vt 0.2806 0.9510 0.0000
vt 0.2841 0.9618 0.0000
vt 0.2828 0.9623 0.0000
vt 0.2902 0.9710 0.0000
vt 0.2893 0.9719 0.0000
vt 0.2994 0.9771 0.0000
vt 0.2989 0.9783 0.0000
vt 0.3931 0.8275 0.0000
vt 0.3931 0.8385 0.0000
vt 0.3931 0.8185 0.0000
vt 0.3363 0.9618 0.0000
vt 0.3375 0.9623 0.0000
vt 0.3385 0.9510 0.0000
vt 0.3398 0.9510 0.0000
vt 0.3363 0.9402 0.0000
vt 0.3375 0.9397 0.0000
vt 0.3302 0.9310 0.0000
vt 0.3311 0.9301 0.0000
vt 0.3210 0.9249 0.0000
vt 0.3215 0.9236 0.0000
vt 0.3102 0.9227 0.0000
vt 0.3102 0.9214 0.0000
vt 0.2994 0.9249 0.0000
vt 0.2989 0.9236 0.0000
vt 0.3500 0.9697 0.0000
vt 0.3509 0.9687 0.0000
vt 0.3601 0.9749 0.0000
vt 0.3596 0.9761 0.0000
vt 0.3709 0.9770 0.0000
vt 0.3709 0.9783 0.0000
vt 0.3817 0.9749 0.0000
vt 0.3822 0.9761 0.0000
vt 0.3909 0.9687 0.0000
vt 0.3918 0.9697 0.0000
vt 0.3436 0.9601 0.0000
vt 0.3448 0.9596 0.0000
vt 0.3413 0.9487 0.0000
vt 0.3426 0.9487 0.0000
vt 0.3970 0.9596 0.0000
vt 0.3983 0.9601 0.0000
vt 0.3992 0.9487 0.0000
vt 0.4005 0.9487 0.0000
vt 0.3970 0.9379 0.0000
vt 0.3983 0.9374 0.0000
vt 0.3596 0.9214 0.0000
vt 0.3601 0.9226 0.0000
vt 0.2806 0.7907 0.0000
vt 0.2806 0.8017 0.0000
vt 0.2806 0.7816 0.0000
vt 0.6278 0.8894 0.0000
vt 0.5898 0.8894 0.0000
vt 0.5898 0.8515 0.0000
vt 0.6278 0.8515 0.0000
vt 0.7037 0.8894 0.0000
vt 0.6657 0.8894 0.0000
vt 0.6657 0.8515 0.0000
vt 0.7037 0.8515 0.0000
vt 0.9291 0.8887 0.0000
vt 0.8883 0.8887 0.0000
vt 0.8883 0.8478 0.0000
vt 0.9291 0.8478 0.0000
vt 0.5139 0.8515 0.0000
vt 0.5519 0.8515 0.0000
vt 0.5519 0.8894 0.0000
vt 0.5139 0.8894 0.0000
vt 0.8065 0.8478 0.0000
vt 0.8474 0.8478 0.0000
vt 0.8474 0.8887 0.0000
vt 0.8065 0.8887 0.0000
vt 0.6278 0.9653 0.0000
vt 0.5898 0.9653 0.0000
vt 0.5898 0.9274 0.0000
vt 0.6278 0.9274 0.0000
vt 0.8883 0.9295 0.0000
vt 0.8474 0.9295 0.0000
vt 0.5898 0.7756 0.0000
vt 0.6278 0.7756 0.0000
vt 0.6278 0.8135 0.0000
vt 0.5898 0.8135 0.0000
vt 0.8474 0.8069 0.0000
vt 0.8883 0.8069 0.0000
vt 0.7037 0.9653 0.0000
vt 0.6657 0.9653 0.0000
vt 0.6657 0.9274 0.0000
vt 0.7037 0.9274 0.0000
vt 0.9700 0.9295 0.0000
vt 0.9291 0.9295 0.0000
vt 0.9700 0.8887 0.0000
vt 0.6657 0.7756 0.0000
vt 0.7037 0.7756 0.0000
vt 0.7037 0.8135 0.0000
vt 0.6657 0.8135 0.0000
vt 0.9291 0.8069 0.0000
vt 0.9700 0.8069 0.0000
vt 0.9700 0.8478 0.0000
vt 0.9291 0.9704 0.0000
vt 0.8883 0.9704 0.0000
vt 0.8883 0.7660 0.0000
vt 0.9291 0.7660 0.0000
vt 0.5139 0.7756 0.0000
vt 0.5519 0.7756 0.0000
vt 0.5519 0.8135 0.0000
vt 0.5139 0.8135 0.0000
vt 0.7656 0.8069 0.0000
vt 0.8065 0.8069 0.0000
vt 0.7656 0.8478 0.0000
vt 0.5519 0.9653 0.0000
vt 0.5139 0.9653 0.0000
vt 0.5139 0.9274 0.0000
vt 0.5519 0.9274 0.0000
vt 0.8065 0.9295 0.0000
vt 0.7656 0.9295 0.0000
vt 0.7656 0.8887 0.0000
vt 0.8065 0.7660 0.0000
vt 0.8474 0.7660 0.0000
vt 0.8474 0.9704 0.0000
vt 0.8065 0.9704 0.0000
vt 0.7073 0.9274 0.0000
vt 0.7073 0.9653 0.0000
vt 0.7056 0.9653 0.0000
vt 0.7056 0.9274 0.0000
vt 0.7183 0.9274 0.0000
vt 0.7183 0.9653 0.0000
vt 0.7166 0.9653 0.0000
vt 0.7166 0.9274 0.0000
vt 0.7146 0.9274 0.0000
vt 0.7146 0.9653 0.0000
vt 0.7129 0.9653 0.0000
vt 0.7129 0.9274 0.0000
vt 0.7110 0.9274 0.0000
vt 0.7110 0.9653 0.0000
vt 0.7093 0.9653 0.0000
vt 0.7093 0.9274 0.0000
vt 0.7183 0.8894 0.0000
vt 0.7166 0.8894 0.0000
vt 0.7183 0.8515 0.0000
vt 0.7166 0.8515 0.0000
vt 0.7183 0.8135 0.0000
vt 0.7166 0.8135 0.0000
vt 0.7183 0.7756 0.0000
vt 0.7166 0.7756 0.0000
vt 0.7110 0.8894 0.0000
vt 0.7093 0.8894 0.0000
vt 0.7110 0.8515 0.0000
vt 0.7093 0.8515 0.0000
vt 0.7110 0.8135 0.0000
vt 0.7093 0.8135 0.0000
vt 0.7110 0.7756 0.0000
vt 0.7093 0.7756 0.0000
vt 0.7073 0.8894 0.0000
vt 0.7056 0.8894 0.0000
vt 0.7073 0.8515 0.0000
vt 0.7056 0.8515 0.0000
vt 0.7073 0.8135 0.0000
vt 0.7056 0.8135 0.0000
vt 0.7073 0.7756 0.0000
vt 0.7056 0.7756 0.0000
vt 0.7146 0.8894 0.0000
vt 0.7129 0.8894 0.0000
vt 0.7146 0.8515 0.0000
vt 0.7129 0.8515 0.0000
vt 0.7146 0.8135 0.0000
vt 0.7129 0.8135 0.0000
vt 0.7146 0.7756 0.0000
vt 0.7129 0.7756 0.0000
vt 0.1410 0.8065 0.0000
vt 0.1402 0.8000 0.0000
vt 0.1402 0.8119 0.0000
vt 0.1593 0.8391 0.0000
vt 0.1368 0.8169 0.0000
vt 0.1318 0.8203 0.0000
vt 0.1199 0.8203 0.0000
vt 0.1258 0.8215 0.0000
vt 0.1149 0.8169 0.0000
vt 0.1115 0.8119 0.0000
vt 0.1368 0.7950 0.0000
vt 0.1318 0.7916 0.0000
vt 0.1258 0.7904 0.0000
vt 0.1199 0.7916 0.0000
vt 0.1103 0.8060 0.0000
vt 0.1609 0.7723 0.0000
vt 0.1879 0.7910 0.0000
vt 0.1829 0.7943 0.0000
vt 0.1796 0.7993 0.0000
vt 0.1784 0.8053 0.0000
vt 0.1796 0.8112 0.0000
vt 0.1939 0.8208 0.0000
vt 0.1939 0.7898 0.0000
vt 0.2272 0.7722 0.0000
vt 0.2048 0.7943 0.0000
vt 0.1998 0.7910 0.0000
vt 0.2268 0.8382 0.0000
vt 0.2090 0.8047 0.0000
vt 0.2082 0.7993 0.0000
vt 0.2082 0.8112 0.0000
vt 0.2048 0.8162 0.0000
vt 0.1998 0.8196 0.0000
# 326 texture coords

g red_cube
usemtl Color1
s off
f 1/1/1 2/2/1 3/3/1 4/4/1 
f 5/5/2 6/6/2 7/7/2 8/8/2 
f 9/9/3 10/10/3 11/11/3 12/12/3 
f 13/13/4 14/14/4 15/15/4 16/16/4 
usemtl Color2
s 1
f 17/17/5 18/18/5 19/19/6 20/20/6 
f 18/21/5 17/22/5 21/23/7 22/24/7 
f 22/24/7 21/23/7 23/25/3 24/26/3 
f 23/25/3 25/27/8 26/28/8 24/26/3 
f 25/27/8 27/29/9 28/30/10 26/28/8 
f 27/31/9 29/32/11 30/33/11 28/34/10 
f 29/32/11 31/35/4 32/36/4 30/33/11 
f 31/35/4 33/37/12 34/38/12 32/36/4 
f 33/37/12 35/39/13 36/40/13 34/38/12 
f 35/41/13 37/42/14 38/43/14 36/44/13 
f 37/42/14 39/45/1 40/46/1 38/43/14 
f 40/46/1 39/45/1 41/47/15 42/48/15 
f 42/48/15 41/47/15 43/49/16 44/50/16 
f 44/51/16 43/52/16 45/53/17 46/54/17 
f 46/54/17 45/53/17 47/55/2 48/56/2 
f 48/56/2 47/55/2 20/20/6 19/19/6 
usemtl Color1
s off
f 49/57/18 50/58/18 51/59/18 
f 52/60/19 53/61/19 54/62/19 
f 50/63/20 1/64/20 14/65/20 
f 13/66/21 10/67/21 55/68/21 
f 9/69/22 6/70/22 56/71/22 
f 57/72/23 5/73/23 2/74/23 
f 4/75/24 58/76/24 15/77/24 
f 8/78/25 59/79/25 3/80/25 
f 12/81/26 60/82/26 7/83/26 
f 16/84/27 53/85/27 11/86/27 
f 3/3/28 59/87/28 58/88/28 4/4/28 
f 4/4/29 15/89/29 14/90/29 1/1/29 
f 7/7/30 60/91/30 59/92/30 8/8/30 
f 8/8/16 3/93/16 2/94/16 5/5/16 
f 11/95/31 53/61/31 60/96/31 12/97/31 
f 12/12/5 7/98/5 6/99/5 9/9/5 
f 15/100/32 58/101/32 53/61/32 16/102/32 
f 16/16/9 11/103/9 10/104/9 13/13/9 
f 1/1/33 50/105/33 57/106/33 2/2/33 
f 5/5/34 57/107/34 56/108/34 6/6/34 
f 9/9/35 56/109/35 55/110/35 10/10/35 
f 13/13/36 55/111/36 50/112/36 14/14/36 
usemtl Color2
s 4
f 61/113/37 34/114/38 36/115/39 62/116/39 
s 2
f 63/117/40 27/118/40 25/119/41 64/120/42 
f 20/121/43 65/122/43 66/123/44 17/124/44 
s 4
f 22/125/45 49/126/45 51/127/46 18/128/46 
f 24/129/47 67/130/47 49/126/45 22/125/45 
f 26/131/48 68/132/48 67/130/47 24/129/47 
f 28/133/49 69/134/49 68/132/48 26/131/48 
f 30/135/50 70/136/51 69/134/49 28/133/49 
f 32/36/52 71/137/53 70/138/51 30/33/50 
f 34/38/38 61/139/37 71/137/53 32/36/52 
f 38/140/54 72/141/54 62/116/39 36/115/39 
f 40/142/55 73/143/55 72/141/54 38/140/54 
f 42/144/56 74/145/56 73/143/55 40/142/55 
f 44/146/57 75/147/57 74/145/56 42/144/56 
f 46/148/58 76/149/58 75/147/57 44/146/57 
f 48/150/59 77/151/59 76/149/58 46/148/58 
f 19/152/60 78/153/60 77/151/59 48/150/59 
f 78/153/60 19/152/60 18/128/46 51/127/46 
s 2
f 54/154/61 43/155/61 41/156/62 52/157/62 
f 52/157/62 41/156/62 39/158/63 79/159/63 
f 79/159/63 39/158/63 37/160/64 80/161/64 
f 80/161/64 37/160/64 35/162/65 81/163/65 
f 82/164/66 45/165/66 43/155/61 54/154/61 
f 83/166/67 47/167/67 45/165/66 82/164/66 
f 65/122/43 20/121/43 47/167/67 83/166/67 
f 81/163/65 35/162/65 33/168/68 84/169/68 
f 84/169/68 33/168/68 31/170/69 85/171/69 
f 85/171/69 31/170/69 29/172/70 86/173/70 
f 86/173/70 29/172/70 27/118/40 63/117/40 
f 87/174/71 21/175/72 17/124/44 66/123/44 
f 88/176/73 23/25/74 21/23/72 87/177/71 
f 64/178/42 25/27/41 23/25/74 88/176/73 
usemtl Color4
s off
f 89/179/75 90/180/75 91/181/75 92/182/75 
f 93/183/75 94/184/75 95/185/75 96/186/75 
usemtl Color3
f 94/187/75 89/188/75 92/189/75 95/190/75 
usemtl Color4
f 97/191/76 98/192/76 99/193/76 100/194/76 
usemtl Color3
f 98/195/77 91/196/77 90/197/77 99/198/77 
usemtl Color4
f 101/199/75 102/200/75 103/201/75 104/202/75 
usemtl Color3
f 104/203/76 103/204/76 90/197/76 89/188/76 
usemtl Color4
f 105/205/78 106/206/78 107/207/78 108/208/78 
usemtl Color3
f 108/209/76 107/210/76 92/189/76 91/196/76 
usemtl Color4
f 109/211/76 110/212/76 111/213/76 112/214/76 
usemtl Color3
f 112/215/75 111/216/75 94/187/75 93/217/75 
usemtl Color4
f 113/218/77 114/219/77 115/220/77 116/221/77 
usemtl Color3
f 116/222/78 115/223/78 96/224/78 95/190/78 
f 110/225/77 101/226/77 104/203/77 111/216/77 
usemtl Color4
f 111/213/78 104/202/78 89/179/78 94/184/78 
usemtl Color3
f 106/227/76 113/228/76 116/222/76 107/210/76 
usemtl Color4
f 107/207/76 116/221/76 95/185/76 92/182/76 
f 117/229/76 118/230/76 119/231/76 120/232/76 
usemtl Color3
f 120/233/75 119/234/75 98/195/75 97/235/75 
usemtl Color4
f 121/236/77 122/237/77 123/238/77 124/239/77 
usemtl Color3
f 124/240/77 123/241/77 100/242/77 99/198/77 
f 118/243/76 105/244/76 108/209/76 119/234/76 
usemtl Color4
f 119/231/77 108/208/77 91/181/77 98/192/77 
usemtl Color3
f 102/245/76 121/246/76 124/240/76 103/204/76 
usemtl Color4
f 103/201/76 124/239/76 99/193/76 90/180/76 
f 123/247/79 122/248/79 125/249/79 126/250/79 
f 110/251/80 109/252/80 127/253/80 128/254/80 
f 115/255/16 114/256/16 129/257/16 130/258/16 
f 118/259/81 117/260/81 131/261/81 132/262/81 
f 101/263/82 110/251/82 128/254/82 133/264/82 
f 102/265/83 101/263/83 133/264/83 134/266/83 
f 121/267/82 102/265/82 134/266/82 135/268/82 
f 122/269/82 121/267/82 135/268/82 125/270/82 
f 105/271/84 118/259/84 132/262/84 136/272/84 
f 106/273/84 105/271/84 136/272/84 137/274/84 
f 113/275/81 106/273/81 137/274/81 138/276/81 
f 114/277/84 113/275/84 138/276/84 129/278/84 
f 100/279/85 123/247/85 126/250/85 139/280/85 
f 97/281/79 100/279/79 139/280/79 140/282/79 
f 120/283/10 97/281/10 140/282/10 141/284/10 
f 117/285/10 120/283/10 141/284/10 131/286/10 
f 96/287/86 115/255/86 130/258/86 142/288/86 
f 93/289/87 96/287/87 142/288/87 143/290/87 
f 112/291/88 93/289/88 143/290/88 144/292/88 
f 109/293/86 112/291/86 144/292/86 127/294/86 
usemtl Color1
f 58/101/89 88/295/89 87/296/89 
f 64/297/90 88/295/90 58/101/90 59/298/90 
f 63/299/19 64/297/19 59/298/19 
f 86/300/19 63/299/19 59/298/19 
f 84/301/91 85/302/91 60/96/91 
f 85/302/19 59/298/19 60/96/19 
f 81/303/19 84/301/19 60/96/19 
f 80/304/19 81/303/19 60/96/19 
f 58/101/19 87/296/19 66/305/19 
f 58/101/91 66/305/91 65/306/91 
f 58/101/19 65/306/19 83/307/19 
f 53/61/19 83/307/19 82/308/19 
f 53/61/19 82/308/19 54/62/19 
f 52/60/19 79/309/19 53/61/19 
f 79/309/19 60/96/19 53/61/19 
f 55/310/18 74/311/18 75/312/18 
f 55/310/18 75/312/18 76/313/18 
f 50/58/18 77/314/18 78/315/18 
f 50/58/18 78/315/18 51/59/18 
f 55/310/18 76/313/18 77/314/18 
f 50/58/18 55/310/18 77/314/18 
f 49/57/18 67/316/18 50/58/18 
f 55/310/18 73/317/18 74/311/18 
f 56/318/18 62/319/18 72/320/18 
f 56/318/92 72/320/92 73/317/92 
f 56/318/93 57/321/93 71/322/93 61/323/93 
f 56/318/18 61/323/18 62/319/18 
f 70/324/94 71/322/94 57/321/94 
f 69/325/18 70/324/18 57/321/18 
f 68/326/18 69/325/18 57/321/18 
f 67/316/18 68/326/18 57/321/18 
f 67/316/18 57/321/18 50/58/18 
f 55/310/18 56/318/18 73/317/18 
f 79/309/19 80/304/19 60/96/19 
f 85/302/19 86/300/19 59/298/19 
f 53/61/19 58/101/19 83/307/19 
# 111 polygons - 44 triangles

