# 3ds Max Wavefront OBJ Exporter v0.97b - (c)2007 guruware
# File Created: 11.02.2021 13:28:51

mtllib rock_2.mtl

#
# object rock2
#

v  -0.2909 0.3391 -0.0255
v  -0.1087 0.4809 -0.2181
v  -0.1087 0.0000 -0.3190
v  -0.2909 0.0000 -0.0255
v  -0.2613 0.2000 0.2426
v  -0.2613 0.0000 0.2426
v  0.1510 0.0000 0.3808
v  0.4001 0.0000 0.1073
v  0.4001 0.2000 0.1073
v  0.2296 0.2000 -0.1611
v  0.2296 0.0000 -0.2359
v  -0.1334 0.5745 0.1820
v  0.1513 0.5457 -0.0864
v  -0.2500 0.5201 0.0492
v  -0.0677 0.5797 -0.1758
v  0.0600 0.4297 0.2956
v  0.3481 0.1500 -0.2368
v  0.2914 0.0434 -0.1148
v  0.2916 0.0000 -0.1140
v  0.3944 0.0000 -0.2143
v  0.3221 0.1500 -0.3327
v  0.3551 0.0000 -0.3562
v  0.2459 0.0000 -0.3740
v  0.1267 0.0000 -0.3294
v  0.1591 0.0980 -0.3157
v  0.1562 0.1500 -0.2465
v  0.1579 0.0000 -0.2371
v  0.1849 0.1980 -0.2903
v  0.2721 0.2062 -0.2150
v  0.2400 0.1983 -0.3037
v  -0.2933 0.1697 -0.3121
v  -0.1593 0.0271 -0.3280
v  -0.1587 -0.0310 -0.3287
v  -0.2970 -0.0310 -0.3808
v  -0.3633 0.1697 -0.2179
v  -0.4001 -0.0310 -0.2403
v  -0.3610 -0.0310 -0.1019
v  -0.2628 -0.0310 0.0064
v  -0.2671 0.1001 -0.0402
v  -0.2057 0.1697 -0.0833
v  -0.1984 -0.0310 -0.0915
v  -0.2580 0.2339 -0.0873
v  -0.2364 0.2448 -0.2387
v  -0.2972 0.2343 -0.1422
# 44 vertices

vn -0.8079 0.0719 -0.5849
vn -0.9939 0.0000 0.1099
vn -0.3179 0.0000 0.9481
vn 0.7393 0.0000 0.6733
vn 0.8698 0.0907 -0.4851
vn 0.2910 0.2389 -0.9264
vn 0.0000 -1.0000 -0.0000
vn -0.1489 0.9540 -0.2602
vn -0.7737 0.4237 -0.4710
vn -0.8880 0.2604 0.3790
vn -0.2864 0.1837 0.9403
vn 0.6518 0.4930 0.5762
vn 0.8069 0.2935 -0.5127
vn 0.3824 0.2652 -0.8851
vn 0.0339 0.9590 0.2815
vn 0.4184 0.8364 0.3542
vn 0.7252 0.2511 0.6411
vn 0.9342 0.2477 -0.2569
vn 0.1583 0.1866 -0.9696
vn -0.3398 0.2393 -0.9095
vn -0.9837 0.1195 0.1343
vn -0.6806 0.0322 0.7320
vn -0.0250 0.9965 -0.0794
vn 0.5523 0.4834 0.6791
vn 0.4974 0.8459 -0.1927
vn -0.1377 0.3274 -0.9348
vn -0.2487 0.3111 -0.9173
vn -0.9148 0.3044 -0.2656
vn -0.4488 0.5177 0.7284
vn 0.2540 0.2475 -0.9350
vn -0.7866 0.2111 -0.5802
vn -0.9522 0.1445 0.2693
vn -0.7245 0.2098 0.6565
vn 0.7158 0.1051 0.6903
vn 0.9853 0.0244 0.1689
vn -0.0751 0.9953 0.0613
vn 0.4022 0.4659 -0.7881
vn -0.5215 0.7935 -0.3137
vn -0.8278 0.2734 0.4900
vn -0.7702 0.2673 0.5790
vn 0.2982 0.2983 0.9067
vn 0.9109 0.4121 0.0195
# 42 vertex normals

vt 0.1348 0.7984 0.0000
vt 0.1611 0.7790 0.0000
vt 0.1749 0.8447 0.0000
vt 0.1348 0.8447 0.0000
vt 0.0982 0.8174 0.0000
vt 0.0982 0.8447 0.0000
vt 0.1545 0.9232 0.0000
vt 0.0982 0.9232 0.0000
vt 0.1545 0.8959 0.0000
vt 0.0891 0.8610 0.0000
vt 0.0891 0.8984 0.0000
vt 0.0618 0.8984 0.0000
vt 0.0618 0.9350 0.0000
vt 0.0891 0.9452 0.0000
vt 0.1749 0.7790 0.0000
vt 0.2211 0.8174 0.0000
vt 0.2211 0.8447 0.0000
vt 0.0493 0.7655 0.0000
vt 0.0950 0.7771 0.0000
vt 0.0982 0.8246 0.0000
vt 0.0156 0.7804 0.0000
vt 0.0605 0.8610 0.0000
vt 0.0146 0.8398 0.0000
vt 0.0992 0.9538 0.0000
vt 0.1500 0.9372 0.0000
vt 0.1075 0.9765 0.0000
vt 0.1246 0.7736 0.0000
vt 0.1553 0.7655 0.0000
vt 0.1064 0.7662 0.0000
vt 0.1106 0.8645 0.0000
vt 0.1370 0.8447 0.0000
vt 0.2059 0.9285 0.0000
vt 0.1545 0.9070 0.0000
vt 0.1548 0.8447 0.0000
vt 0.2032 0.8691 0.0000
vt 0.0146 0.9248 0.0000
vt 0.1805 0.7655 0.0000
vt 0.2104 0.7701 0.0000
vt 0.1464 0.9693 0.0000
vt 0.2059 0.9093 0.0000
vt 0.2204 0.8926 0.0000
vt 0.2264 0.8925 0.0000
vt 0.2264 0.9062 0.0000
vt 0.2059 0.9224 0.0000
vt 0.2264 0.9256 0.0000
vt 0.0417 0.9452 0.0000
vt 0.0417 0.9602 0.0000
vt 0.0212 0.9497 0.0000
vt 0.0417 0.9764 0.0000
vt 0.0283 0.9720 0.0000
vt 0.2276 0.8990 0.0000
vt 0.2371 0.9061 0.0000
vt 0.2390 0.9195 0.0000
vt 0.2264 0.9195 0.0000
vt 0.2211 0.7877 0.0000
vt 0.2396 0.7732 0.0000
vt 0.2394 0.7937 0.0000
vt 0.2211 0.7937 0.0000
vt 0.0542 0.8918 0.0000
vt 0.0342 0.8903 0.0000
vt 0.0260 0.8725 0.0000
vt 0.0480 0.8610 0.0000
vt 0.0615 0.8786 0.0000
vt 0.0613 0.8612 0.0000
vt 0.0764 0.9452 0.0000
vt 0.0898 0.9535 0.0000
vt 0.0769 0.9530 0.0000
vt 0.2331 0.7937 0.0000
vt 0.2343 0.8171 0.0000
vt 0.2211 0.8170 0.0000
vt 0.0901 0.9643 0.0000
vt 0.0765 0.9649 0.0000
vt 0.0146 0.9610 0.0000
vt 0.0146 0.9685 0.0000
vt 0.2336 0.8925 0.0000
vt 0.2237 0.7655 0.0000
vt 0.2357 0.7666 0.0000
vt 0.0422 0.9555 0.0000
vt 0.0605 0.9750 0.0000
vt 0.0606 0.9829 0.0000
vt 0.0417 0.9829 0.0000
vt 0.1633 0.9508 0.0000
vt 0.1633 0.9379 0.0000
vt 0.1907 0.9285 0.0000
vt 0.1907 0.9477 0.0000
vt 0.1907 0.9666 0.0000
vt 0.1907 0.9814 0.0000
vt 0.1728 0.9751 0.0000
vt 0.2010 0.9408 0.0000
vt 0.2105 0.9349 0.0000
vt 0.2284 0.9285 0.0000
vt 0.2284 0.9419 0.0000
vt 0.2205 0.9742 0.0000
vt 0.2284 0.9743 0.0000
vt 0.2390 0.8690 0.0000
vt 0.2331 0.8920 0.0000
vt 0.2129 0.8925 0.0000
vt 0.2059 0.8604 0.0000
vt 0.2270 0.8534 0.0000
vt 0.2090 0.8447 0.0000
vt 0.0764 0.9720 0.0000
vt 0.0610 0.9579 0.0000
vt 0.0757 0.9628 0.0000
vt 0.0500 0.9452 0.0000
vt 0.0606 0.9452 0.0000
vt 0.0761 0.9491 0.0000
vt 0.1545 0.9611 0.0000
vt 0.1545 0.9686 0.0000
vt 0.1552 0.9285 0.0000
vt 0.1632 0.9384 0.0000
vt 0.1557 0.9469 0.0000
vt 0.1907 0.9620 0.0000
vt 0.1922 0.9413 0.0000
# 113 texture coords

g rock2
usemtl rock1
s off
f 1/1/1 2/2/1 3/3/1 4/4/1 
f 5/5/2 1/1/2 4/4/2 6/6/2 
f 6/7/3 7/8/3 5/9/3 
f 7/10/4 8/11/4 9/12/4 
f 10/13/5 9/12/5 8/11/5 11/14/5 
f 2/15/6 10/16/6 11/17/6 3/3/6 
f 4/18/7 3/19/7 11/20/7 6/21/7 
f 6/21/7 11/20/7 8/22/7 7/23/7 
f 12/24/8 13/25/8 14/26/8 
f 2/2/9 1/1/9 14/27/9 15/28/9 
f 1/1/10 5/5/10 12/29/10 14/27/10 
f 5/9/11 7/8/11 16/30/11 12/31/11 
f 7/32/12 9/33/12 13/34/12 16/35/12 
f 9/12/13 10/13/13 13/36/13 
f 10/16/14 2/15/14 15/37/14 13/38/14 
f 13/25/15 15/39/15 14/26/15 
f 12/24/16 16/8/16 13/25/16 
f 17/40/17 18/41/17 19/42/17 20/43/17 
f 21/44/18 17/40/18 20/43/18 22/45/18 
f 22/46/19 23/47/19 21/48/19 
f 23/47/20 24/49/20 25/50/20 
f 26/51/21 25/52/21 24/53/21 27/54/21 
f 18/55/22 26/56/22 27/57/22 19/58/22 
f 22/59/7 20/60/7 19/61/7 27/62/7 
f 23/63/7 22/59/7 27/62/7 24/64/7 
f 28/65/23 29/66/23 30/67/23 
f 18/68/24 17/69/24 29/70/24 
f 17/71/25 21/72/25 30/67/25 29/66/25 
f 21/48/26 23/47/26 30/73/26 
f 23/47/27 25/50/27 28/74/27 30/73/27 
f 25/52/28 26/51/28 28/75/28 
f 26/56/29 18/55/29 29/76/29 28/77/29 
f 31/78/30 32/79/30 33/80/30 34/81/30 
f 35/82/31 31/83/31 34/84/31 36/85/31 
f 36/85/32 37/86/32 35/82/32 
f 37/86/33 38/87/33 39/88/33 
f 40/89/34 39/90/34 38/91/34 41/92/34 
f 32/93/35 40/89/35 41/92/35 33/94/35 
f 36/95/7 34/96/7 33/97/7 41/98/7 
f 37/99/7 36/95/7 41/98/7 38/100/7 
f 42/101/36 43/102/36 44/103/36 
f 32/79/37 31/78/37 43/104/37 
f 31/105/38 35/106/38 44/103/38 43/102/38 
f 35/82/39 37/86/39 44/107/39 
f 37/86/40 39/88/40 42/108/40 44/107/40 
f 39/109/41 40/110/41 42/111/41 
f 40/89/42 32/93/42 43/112/42 42/113/42 
# 29 polygons - 18 triangles

