# Blender v2.76 (sub 0) OBJ File: 'Common.blend'
# www.blender.org
o Cactus_Cube.011
v -0.064470 0.654699 -0.136953
v -0.082603 0.895848 -0.136953
v -0.064470 0.654699 0.104876
v -0.082603 0.895848 0.104876
v -0.553823 0.726389 -0.125095
v -0.541431 0.943718 -0.133037
v -0.553823 0.726389 0.093018
v -0.541431 0.943718 0.100959
v -0.775030 0.925126 0.100960
v -0.708365 0.792921 0.080114
v -0.775030 0.925126 -0.133037
v -0.708365 0.792921 -0.112191
v -0.603413 1.507815 0.105065
v -0.601194 1.478304 -0.131167
v -0.786207 1.466085 0.108561
v -0.783987 1.436574 -0.127671
v -0.616789 1.743207 0.059413
v -0.617643 1.754559 -0.103371
v -0.745133 1.746139 0.061822
v -0.743604 1.725803 -0.100962
v 0.078833 0.993356 0.134573
v 0.077730 1.281054 0.125616
v 0.080464 0.973270 -0.171314
v 0.070725 1.274330 -0.172709
v 0.578549 1.109506 0.085479
v 0.568218 1.342011 0.083503
v 0.578549 1.109506 -0.127174
v 0.568218 1.342011 -0.111133
v 0.784830 1.310845 -0.144755
v 0.729073 1.182057 -0.112012
v 0.784830 1.310845 0.103060
v 0.729073 1.182057 0.070317
v 0.602506 1.715882 -0.141185
v 0.599163 1.674846 0.097847
v 0.785786 1.721953 -0.132674
v 0.777747 1.627363 0.086806
v 0.616145 2.026815 -0.085795
v 0.600341 2.017906 0.034215
v 0.721973 2.027631 -0.092476
v 0.679388 2.057093 0.040306
v -0.161264 0.010044 0.143415
v -0.147660 2.351829 0.190021
v -0.162259 0.010043 -0.149081
v -0.177090 2.400412 -0.133999
v 0.160219 0.010044 0.132358
v 0.142083 2.409618 0.154676
v 0.101267 0.010043 -0.154129
v 0.148744 2.458201 -0.119955
v -0.100531 2.774742 0.112483
v -0.105507 2.849681 -0.060306
v 0.062253 2.894155 -0.067199
v 0.086225 2.856765 0.094193
v -0.193978 1.173353 0.260112
v -0.222096 1.173353 -0.210300
v 0.197310 1.439500 -0.270040
v 0.180058 1.355216 0.234423
vt 0.125000 0.125000
vn 0.997200 0.075000 0.000000
vn -0.018800 -0.017600 0.999700
vn -0.044000 -0.088800 -0.995100
vn -0.018800 -0.017600 -0.999700
vn -0.145000 -0.989400 -0.000000
vn 0.103800 0.994600 0.000000
vn -0.892900 -0.450200 0.000000
vn -0.395400 -0.918500 -0.000000
vn 0.009800 -0.009900 0.999900
vn -0.044000 -0.088800 0.995100
vn -0.989700 0.140700 -0.026900
vn -0.009300 0.006300 -0.999900
vn -0.999800 -0.019100 -0.003500
vn 0.993900 0.110100 -0.002200
vn -0.101500 0.994500 -0.027700
vn -0.041300 0.097600 -0.994400
vn 0.998300 0.058200 0.000800
vn -0.003300 0.176600 0.984300
vn -0.999800 -0.018200 0.009700
vn 0.099300 0.031000 -0.994600
vn -0.002400 -0.084600 0.996400
vn 0.087600 0.022900 0.995900
vn 0.245200 -0.968700 0.038300
vn -0.128900 0.991600 -0.011700
vn 0.917700 -0.397300 0.000000
vn 0.434200 -0.900800 0.000000
vn -0.063900 -0.020000 -0.997800
vn -0.045600 -0.040400 -0.998100
vn 0.960700 0.213400 0.177500
vn -0.020800 0.003700 0.999800
vn 0.999800 0.008500 0.018900
vn -0.995800 0.091900 0.001000
vn -0.210200 0.969300 -0.127400
vn 0.023600 0.144000 0.989300
vn -0.998500 0.022000 -0.050200
vn 0.002600 0.153400 -0.988200
vn -0.998400 -0.040600 0.038100
vn -0.068300 -0.067000 -0.995400
vn 0.997500 -0.041900 -0.057100
vn 0.075000 -0.086300 0.993400
vn -0.000000 -1.000000 0.000000
vn -0.985700 0.134600 0.101700
vn -0.296900 0.897100 0.327300
vn 0.064900 0.157000 0.985500
vn -0.014900 0.141100 -0.989900
vn 0.987200 0.159100 -0.007800
vn 0.067500 0.066600 0.995500
vn 0.998500 0.040400 0.037500
vn -0.104000 0.099600 -0.989600
vn -0.996500 0.037600 0.074500
s off
f 2/1/1 4/1/1 3/1/1 1/1/1
f 4/1/2 8/1/2 7/1/2 3/1/2
f 6/1/3 5/1/3 12/1/3 11/1/3
f 6/1/4 2/1/4 1/1/4 5/1/4
f 1/1/5 3/1/5 7/1/5 5/1/5
f 6/1/6 8/1/6 4/1/6 2/1/6
f 9/1/7 11/1/7 12/1/7 10/1/7
f 5/1/8 7/1/8 10/1/8 12/1/8
f 9/1/9 8/1/9 13/1/9 15/1/9
f 7/1/10 8/1/10 9/1/10 10/1/10
f 16/1/11 15/1/11 19/1/11 20/1/11
f 6/1/12 11/1/12 16/1/12 14/1/12
f 11/1/13 9/1/13 15/1/13 16/1/13
f 8/1/14 6/1/14 14/1/14 13/1/14
f 17/1/15 18/1/15 20/1/15 19/1/15
f 14/1/16 16/1/16 20/1/16 18/1/16
f 13/1/17 14/1/17 18/1/17 17/1/17
f 15/1/18 13/1/18 17/1/18 19/1/18
f 22/1/19 24/1/19 23/1/19 21/1/19
f 24/1/20 28/1/20 27/1/20 23/1/20
f 26/1/21 25/1/21 32/1/21 31/1/21
f 26/1/22 22/1/22 21/1/22 25/1/22
f 21/1/23 23/1/23 27/1/23 25/1/23
f 26/1/24 28/1/24 24/1/24 22/1/24
f 29/1/25 31/1/25 32/1/25 30/1/25
f 25/1/26 27/1/26 30/1/26 32/1/26
f 29/1/27 28/1/27 33/1/27 35/1/27
f 27/1/28 28/1/28 29/1/28 30/1/28
f 36/1/29 35/1/29 39/1/29 40/1/29
f 26/1/30 31/1/30 36/1/30 34/1/30
f 31/1/31 29/1/31 35/1/31 36/1/31
f 28/1/32 26/1/32 34/1/32 33/1/32
f 37/1/33 38/1/33 40/1/33 39/1/33
f 34/1/34 36/1/34 40/1/34 38/1/34
f 33/1/35 34/1/35 38/1/35 37/1/35
f 35/1/36 33/1/36 37/1/36 39/1/36
f 53/1/37 54/1/37 43/1/37 41/1/37
f 54/1/38 55/1/38 47/1/38 43/1/38
f 55/1/39 56/1/39 45/1/39 47/1/39
f 56/1/40 53/1/40 41/1/40 45/1/40
f 41/1/41 43/1/41 47/1/41 45/1/41
f 44/1/42 42/1/42 49/1/42 50/1/42
f 52/1/43 51/1/43 50/1/43 49/1/43
f 42/1/44 46/1/44 52/1/44 49/1/44
f 48/1/45 44/1/45 50/1/45 51/1/45
f 46/1/46 48/1/46 51/1/46 52/1/46
f 46/1/47 42/1/47 53/1/47 56/1/47
f 48/1/48 46/1/48 56/1/48 55/1/48
f 44/1/49 48/1/49 55/1/49 54/1/49
f 42/1/50 44/1/50 54/1/50 53/1/50
