# Blender v2.76 (sub 0) OBJ File: 'Common.blend'
# www.blender.org
o warehouse_1_Cube.316
v -0.688311 1.183462 1.126405
v 0.688311 1.183462 1.126405
v -0.688311 -0.000000 1.126405
v -0.776313 0.000000 1.126405
v 0.688311 1.264824 1.126405
v 0.776313 1.264824 1.126405
v 0.688311 -0.000000 1.126405
v -0.688311 1.264824 1.126405
v 0.776313 0.000000 1.126405
v 0.776313 1.183462 1.126405
v -0.776313 1.264824 1.126405
v -0.776313 1.183462 1.126405
v -0.776313 -0.000000 -0.009255
v -0.776313 1.264824 -0.009255
v 0.776313 -0.000000 -0.009255
v 0.776313 1.264824 -0.009255
v 0.688311 1.264824 -0.009255
v -0.688311 1.264824 -0.009255
v -0.688311 -0.000000 -0.009255
v 0.688311 -0.000000 -0.009255
v -0.776313 1.183462 -0.009255
v 0.776313 1.183462 -0.009255
v 0.688311 1.183462 -0.009255
v -0.688311 1.183462 -0.009255
v 0.688311 -0.000000 1.650029
v -0.688311 -0.000000 1.650029
v 0.688311 -0.000000 0.186602
v -0.688311 -0.000000 0.186602
v -0.688311 0.254910 0.186602
v -0.688311 0.019374 1.650029
v 0.688311 0.254910 0.186602
v 0.688311 0.019374 1.650029
v -0.688311 -0.000000 1.277403
v 0.688311 -0.000000 1.277403
v -0.688311 0.254910 1.277403
v 0.688311 0.254910 1.277403
v 1.064260 1.605828 -1.249585
v 0.818930 1.022415 -1.447829
v 1.064260 1.605828 0.878935
v 0.741254 0.161449 1.077180
v -1.064260 1.605828 -1.249585
v -0.818930 1.022415 -1.447829
v -1.064260 1.605828 0.878935
v -0.743804 0.161449 1.077180
v 1.311729 0.102421 -1.497054
v 1.311729 -0.000000 -1.497054
v 1.311729 0.102421 1.126405
v 1.311729 0.000000 1.126405
v -1.311729 0.102421 -1.497054
v -1.311729 -0.000000 -1.497054
v -1.311729 0.102421 1.126405
v -1.311729 0.000000 1.126405
v 0.741254 1.222576 1.077180
v -0.743804 1.222576 1.077180
v 0.818930 1.255875 -1.447829
v -0.818930 1.255875 -1.447829
v 1.064260 1.481361 0.878935
v -1.064260 1.481361 0.878935
v 1.064260 1.481361 -1.249585
v -1.064260 1.481361 -1.249585
v -0.146595 1.337788 -0.517900
v -0.146595 1.630977 -0.517900
v -0.146595 1.337788 -0.811089
v -0.146595 1.630977 -0.811089
v 0.146595 1.337788 -0.517900
v 0.146595 1.630977 -0.517900
v 0.146595 1.337788 -0.811089
v 0.146595 1.630977 -0.811089
v 0.410985 1.337788 -0.517900
v 0.410985 1.630977 -0.517900
v 0.410985 1.337788 -0.811089
v 0.410985 1.630977 -0.811089
v 0.704174 1.337788 -0.517900
v 0.704174 1.630977 -0.517900
v 0.704174 1.337788 -0.811089
v 0.704174 1.630977 -0.811089
v -0.704174 1.337788 -0.513698
v -0.704174 1.630977 -0.517900
v -0.704174 1.337788 -0.806887
v -0.704174 1.630977 -0.811089
v -0.410985 1.337788 -0.513698
v -0.410985 1.630977 -0.517900
v -0.410985 1.337788 -0.806887
v -0.410985 1.630977 -0.811089
v 0.280474 1.605828 0.968438
v -0.280474 1.605828 0.968438
v 0.280474 1.605828 1.077180
v -0.280474 1.605828 1.077180
v 0.280474 1.888308 1.077180
v -0.280474 1.888308 1.077180
v 0.280474 1.888308 0.968438
v -0.280474 1.888308 0.968438
v -1.262504 0.000000 1.077180
v 1.262504 0.000000 1.077180
v 1.262504 1.605828 1.077180
v -1.262504 1.605828 1.077180
v -0.743804 0.161449 0.424038
v 0.741254 0.161449 0.424038
v 0.741254 1.222576 0.424038
v -0.743804 1.222576 0.424038
v -0.705928 0.342674 1.045028
v 0.703379 0.342674 1.045028
v 0.703379 1.197635 1.045028
v -0.705928 1.197635 1.045028
v 0.703379 0.410679 1.045028
v -0.705928 0.410679 1.045028
v -0.705928 0.342674 1.076670
v 0.703379 0.342674 1.076670
v 0.703379 0.410679 1.076670
v -0.705928 0.410679 1.076670
v -0.776313 0.000000 1.126405
v 0.776313 0.000000 1.126405
v 0.776313 0.102421 1.126405
v -0.776313 0.102421 1.126405
v 0.776313 -0.000000 -1.497054
v -0.776313 -0.000000 -1.497054
v -0.776313 0.102421 -1.497054
v 0.776313 0.102421 -1.497054
v 0.585696 0.000000 1.650029
v 0.480170 0.000000 1.650029
v -0.480170 0.000000 1.650029
v -0.585696 0.000000 1.650029
v 0.585696 0.000000 0.186602
v 0.480170 0.000000 0.186602
v -0.480170 0.000000 0.186602
v -0.585696 0.000000 0.186602
v 0.585696 0.019374 1.650029
v 0.480170 0.019374 1.650029
v -0.480170 0.019374 1.650029
v -0.585696 0.019374 1.650029
v 0.585696 0.254910 0.186602
v 0.480170 0.254910 0.186602
v -0.480170 0.254910 0.186602
v -0.585696 0.254910 0.186602
v -0.585696 0.254910 1.277403
v -0.480170 0.254910 1.277403
v 0.480170 0.254910 1.277403
v 0.585696 0.254910 1.277403
v 0.585696 0.000000 1.277403
v 0.480170 0.000000 1.277403
v -0.480170 0.000000 1.277403
v -0.585696 0.000000 1.277403
v -1.106419 -0.000000 -0.532842
v -1.106419 0.699015 -0.532842
v -1.106419 -0.000000 -0.871235
v -1.106419 0.699015 -0.871235
v -1.392476 -0.000000 -0.532842
v -1.392476 0.699015 -0.532842
v -1.392476 0.699015 -0.871235
v -1.392476 -0.000000 -0.871235
v -1.080085 0.585670 -0.742704
v -1.080085 0.824909 -0.742704
v -1.080085 0.585670 -0.797585
v -1.080085 0.824909 -0.797584
v -1.177988 0.585670 -0.742704
v -1.177988 0.824909 -0.742704
v -1.177988 0.824909 -0.797584
v -1.177988 0.585670 -0.797585
v -0.521511 1.490929 -0.751570
v -0.521511 1.679429 -0.751570
v -0.470504 1.490929 -0.700562
v -0.470504 1.679429 -0.700562
v -0.470504 1.490929 -0.628426
v -0.470504 1.679429 -0.628426
v -0.521511 1.490929 -0.577419
v -0.521511 1.679429 -0.577419
v -0.593647 1.490929 -0.577419
v -0.593647 1.679429 -0.577419
v -0.644655 1.490929 -0.628426
v -0.644655 1.679429 -0.628426
v -0.644655 1.490929 -0.700562
v -0.644655 1.679429 -0.700562
v -0.593647 1.490929 -0.751570
v -0.593647 1.679429 -0.751570
v 0.593647 1.392125 -0.751570
v 0.593647 1.580625 -0.751570
v 0.644655 1.392125 -0.700562
v 0.644655 1.580625 -0.700562
v 0.644655 1.392125 -0.628426
v 0.644655 1.580625 -0.628426
v 0.593647 1.392125 -0.577419
v 0.593647 1.580625 -0.577419
v 0.521511 1.392125 -0.577419
v 0.521511 1.580625 -0.577419
v 0.470504 1.392125 -0.628426
v 0.470504 1.580625 -0.628426
v 0.470504 1.392125 -0.700562
v 0.470504 1.580625 -0.700562
v 0.521511 1.392125 -0.751570
v 0.521511 1.580625 -0.751570
v 0.036068 1.392125 -0.751570
v 0.036068 1.580625 -0.751570
v 0.087076 1.392125 -0.700562
v 0.087076 1.580625 -0.700562
v 0.087076 1.392125 -0.628426
v 0.087076 1.580625 -0.628426
v 0.036068 1.392125 -0.577419
v 0.036068 1.580625 -0.577419
v -0.036068 1.392125 -0.577419
v -0.036068 1.580625 -0.577419
v -0.087076 1.392125 -0.628426
v -0.087076 1.580625 -0.628426
v -0.087076 1.392125 -0.700562
v -0.087076 1.580625 -0.700562
v -0.036068 1.392125 -0.751570
v -0.036068 1.580625 -0.751570
v 1.262504 -0.000000 -1.447829
v -1.262504 -0.000000 -1.447829
v 1.262504 1.605828 -1.447829
v -1.262504 1.605828 -1.447829
v 0.818930 1.022415 -1.370327
v -0.818930 1.022415 -1.370327
v 0.818930 1.255875 -1.370327
v -0.818930 1.255875 -1.370327
vt 0.875000 0.625000
vt 0.625000 0.125000
vt 0.125000 0.375000
vt 0.625000 0.625000
vt 0.625000 0.375000
vt 0.125000 0.125000
vt 0.625000 0.875000
vt 0.375000 0.125000
vt 0.875000 0.375000
vt 0.125000 0.625000
vt 0.375000 0.625000
vt 0.875000 0.125000
vt 0.375000 0.375000
vt 0.125000 0.875000
vt 0.375000 0.875000
vn 0.000000 -1.000000 0.000000
vn -1.000000 0.000000 0.000000
vn 0.000000 1.000000 0.000000
vn 1.000000 0.000000 0.000000
vn 0.000000 0.000000 1.000000
vn 0.000000 0.845300 0.534300
vn 0.000000 0.000000 -1.000000
vn 0.000000 -0.014300 -0.999900
vn 0.000000 0.014300 0.999900
vn 0.707100 0.000000 -0.707100
vn 0.707100 0.000000 0.707100
vn -0.707100 0.000000 0.707100
vn -0.707100 0.000000 -0.707100
s off
f 24/1/1 23/1/1 2/1/1 1/1/1
f 13/2/1 19/2/1 3/2/1 4/2/1
f 21/2/2 13/2/2 4/2/2 12/2/2
f 18/2/3 14/2/3 11/2/3 8/2/3
f 17/2/3 18/2/3 8/2/3 5/2/3
f 19/1/4 24/1/4 1/1/4 3/1/4
f 15/2/4 22/2/4 10/2/4 9/2/4
f 16/2/3 17/2/3 5/2/3 6/2/3
f 23/1/2 20/1/2 7/1/2 2/1/2
f 14/2/2 21/2/2 12/2/2 11/2/2
f 8/2/5 11/2/5 12/2/5 1/2/5
f 6/2/5 5/2/5 2/2/5 10/2/5
f 5/2/5 8/2/5 1/2/5 2/2/5
f 10/2/5 2/2/5 7/2/5 9/2/5
f 1/2/5 12/2/5 4/2/5 3/2/5
f 20/2/1 15/2/1 9/2/1 7/2/1
f 22/2/4 16/2/4 6/2/4 10/2/4
f 142/3/1 122/3/1 26/3/1 33/3/1
f 135/4/6 35/4/6 30/4/6 130/4/6
f 119/3/5 25/3/5 32/3/5 127/3/5
f 33/3/2 26/3/2 30/3/2 35/3/2
f 126/3/7 28/3/7 29/3/7 134/3/7
f 34/3/4 27/3/4 31/3/4 36/3/4
f 25/3/4 34/3/4 36/3/4 32/3/4
f 28/3/2 33/3/2 35/3/2 29/3/2
f 134/4/3 29/4/3 35/4/3 135/4/3
f 126/3/1 142/3/1 33/3/1 28/3/1
f 37/5/5 41/5/5 60/5/5 59/5/5
f 93/6/1 208/6/1 207/6/1 94/6/1
f 54/6/4 44/6/4 97/6/4 100/6/4
f 209/6/4 95/6/4 94/6/4 207/6/4
f 56/7/1 55/7/1 213/7/1 214/7/1
f 96/6/2 210/6/2 208/6/2 93/6/2
f 114/8/3 117/8/3 49/8/3 51/8/3
f 112/8/1 115/8/1 46/8/1 48/8/1
f 114/8/5 51/8/5 52/8/5 111/8/5
f 45/8/4 47/8/4 48/8/4 46/8/4
f 118/8/7 45/8/7 46/8/7 115/8/7
f 51/8/2 49/8/2 50/8/2 52/8/2
f 39/6/3 43/6/3 96/6/3 95/6/3
f 37/6/3 39/6/3 95/6/3 209/6/3
f 41/6/3 37/6/3 209/6/3 210/6/3
f 43/6/3 41/6/3 210/6/3 96/6/3
f 57/9/3 59/9/3 60/9/3 58/9/3
f 43/5/7 39/5/7 57/5/7 58/5/7
f 41/5/4 43/5/4 58/5/4 60/5/4
f 39/5/2 37/5/2 59/5/2 57/5/2
f 62/10/2 64/10/2 63/10/2 61/10/2
f 64/10/7 68/10/7 67/10/7 63/10/7
f 68/10/4 66/10/4 65/10/4 67/10/4
f 66/10/5 62/10/5 61/10/5 65/10/5
f 61/10/1 63/10/1 67/10/1 65/10/1
f 66/10/3 68/10/3 64/10/3 62/10/3
f 70/10/2 72/10/2 71/10/2 69/10/2
f 72/10/7 76/10/7 75/10/7 71/10/7
f 76/10/4 74/10/4 73/10/4 75/10/4
f 74/10/5 70/10/5 69/10/5 73/10/5
f 69/10/1 71/10/1 75/10/1 73/10/1
f 74/10/3 76/10/3 72/10/3 70/10/3
f 78/10/2 80/10/2 79/10/2 77/10/2
f 80/10/8 84/10/8 83/10/8 79/10/8
f 84/10/4 82/10/4 81/10/4 83/10/4
f 82/10/9 78/10/9 77/10/9 81/10/9
f 77/10/1 79/10/1 83/10/1 81/10/1
f 82/10/3 84/10/3 80/10/3 78/10/3
f 85/11/1 87/11/1 88/11/1 86/11/1
f 91/11/3 92/11/3 90/11/3 89/11/3
f 87/11/4 85/11/4 91/11/4 89/11/4
f 88/11/5 87/11/5 89/11/5 90/11/5
f 86/11/2 88/11/2 90/11/2 92/11/2
f 85/11/7 86/11/7 92/11/7 91/11/7
f 40/6/5 44/6/5 93/6/5 94/6/5
f 54/6/5 53/6/5 95/6/5 96/6/5
f 53/6/5 40/6/5 94/6/5 95/6/5
f 44/6/5 54/6/5 96/6/5 93/6/5
f 99/1/5 100/1/5 97/1/5 98/1/5
f 53/6/1 54/6/1 100/6/1 99/6/1
f 40/6/2 53/6/2 99/6/2 98/6/2
f 44/6/3 40/6/3 98/6/3 97/6/3
f 105/12/3 106/12/3 110/12/3 109/12/3
f 103/12/5 104/12/5 106/12/5 105/12/5
f 109/12/5 110/12/5 107/12/5 108/12/5
f 102/12/4 105/12/4 109/12/4 108/12/4
f 101/12/1 102/12/1 108/12/1 107/12/1
f 106/12/2 101/12/2 107/12/2 110/12/2
f 49/8/7 117/8/7 116/8/7 50/8/7
f 117/8/7 118/8/7 115/8/7 116/8/7
f 47/8/5 113/8/5 112/8/5 48/8/5
f 52/8/1 50/8/1 116/8/1 111/8/1
f 111/8/1 116/8/1 115/8/1 112/8/1
f 47/8/3 45/8/3 118/8/3 113/8/3
f 113/8/3 118/8/3 117/8/3 114/8/3
f 27/3/1 34/3/1 139/3/1 123/3/1
f 123/3/1 139/3/1 140/3/1 124/3/1
f 124/3/1 140/3/1 141/3/1 125/3/1
f 125/3/1 141/3/1 142/3/1 126/3/1
f 31/4/3 131/4/3 138/4/3 36/4/3
f 131/13/3 132/13/3 137/13/3 138/13/3
f 132/4/3 133/4/3 136/4/3 137/4/3
f 133/13/3 134/13/3 135/13/3 136/13/3
f 27/3/7 123/3/7 131/3/7 31/3/7
f 123/3/7 124/3/7 132/3/7 131/3/7
f 124/3/7 125/3/7 133/3/7 132/3/7
f 125/3/7 126/3/7 134/3/7 133/3/7
f 26/3/5 122/3/5 130/3/5 30/3/5
f 122/3/5 121/3/5 129/3/5 130/3/5
f 121/3/5 120/3/5 128/3/5 129/3/5
f 120/3/5 119/3/5 127/3/5 128/3/5
f 36/4/6 138/4/6 127/4/6 32/4/6
f 138/13/6 137/13/6 128/13/6 127/13/6
f 137/4/6 136/4/6 129/4/6 128/4/6
f 136/13/6 135/13/6 130/13/6 129/13/6
f 34/3/1 25/3/1 119/3/1 139/3/1
f 139/3/1 119/3/1 120/3/1 140/3/1
f 140/3/1 120/3/1 121/3/1 141/3/1
f 141/3/1 121/3/1 122/3/1 142/3/1
f 149/14/7 146/14/7 145/14/7 150/14/7
f 146/14/4 144/14/4 143/14/4 145/14/4
f 144/14/5 148/14/5 147/14/5 143/14/5
f 147/14/1 150/14/1 145/14/1 143/14/1
f 144/14/3 146/14/3 149/14/3 148/14/3
f 157/14/7 154/14/7 153/14/7 158/14/7
f 154/14/4 152/14/4 151/14/4 153/14/4
f 152/14/5 156/14/5 155/14/5 151/14/5
f 155/14/1 158/14/1 153/14/1 151/14/1
f 152/14/3 154/14/3 157/14/3 156/14/3
f 159/10/10 160/10/10 162/10/10 161/10/10
f 161/10/4 162/10/4 164/10/4 163/10/4
f 163/10/11 164/10/11 166/10/11 165/10/11
f 165/10/5 166/10/5 168/10/5 167/10/5
f 167/10/12 168/10/12 170/10/12 169/10/12
f 169/10/2 170/10/2 172/10/2 171/10/2
f 162/10/3 160/10/3 174/10/3 172/10/3 170/10/3 168/10/3 166/10/3 164/10/3
f 173/10/7 174/10/7 160/10/7 159/10/7
f 171/10/13 172/10/13 174/10/13 173/10/13
f 159/10/1 161/10/1 163/10/1 165/10/1 167/10/1 169/10/1 171/10/1 173/10/1
f 175/10/10 176/10/10 178/10/10 177/10/10
f 177/10/4 178/10/4 180/10/4 179/10/4
f 179/10/11 180/10/11 182/10/11 181/10/11
f 181/10/5 182/10/5 184/10/5 183/10/5
f 183/10/12 184/10/12 186/10/12 185/10/12
f 185/10/2 186/10/2 188/10/2 187/10/2
f 178/10/3 176/10/3 190/10/3 188/10/3 186/10/3 184/10/3 182/10/3 180/10/3
f 189/10/7 190/10/7 176/10/7 175/10/7
f 187/10/13 188/10/13 190/10/13 189/10/13
f 175/10/1 177/10/1 179/10/1 181/10/1 183/10/1 185/10/1 187/10/1 189/10/1
f 191/10/10 192/10/10 194/10/10 193/10/10
f 193/10/4 194/10/4 196/10/4 195/10/4
f 195/10/11 196/10/11 198/10/11 197/10/11
f 197/10/5 198/10/5 200/10/5 199/10/5
f 199/10/12 200/10/12 202/10/12 201/10/12
f 201/10/2 202/10/2 204/10/2 203/10/2
f 194/10/3 192/10/3 206/10/3 204/10/3 202/10/3 200/10/3 198/10/3 196/10/3
f 205/10/7 206/10/7 192/10/7 191/10/7
f 203/10/13 204/10/13 206/10/13 205/10/13
f 191/10/1 193/10/1 195/10/1 197/10/1 199/10/1 201/10/1 203/10/1 205/10/1
f 42/6/7 38/6/7 207/6/7 208/6/7
f 38/6/7 55/6/7 209/6/7 207/6/7
f 55/6/7 56/6/7 210/6/7 209/6/7
f 56/6/7 42/6/7 208/6/7 210/6/7
f 214/15/7 213/15/7 211/15/7 212/15/7
f 38/7/3 42/7/3 212/7/3 211/7/3
f 42/7/4 56/7/4 214/7/4 212/7/4
f 55/7/2 38/7/2 211/7/2 213/7/2
f 147/14/2 148/14/2 149/14/2 150/14/2
f 155/14/2 156/14/2 157/14/2 158/14/2
