# Blender v2.80 (sub 75) OBJ File: 'Autumn.blend'
# www.blender.org
o Cylinder
v 0.001026 0.000000 -0.251735
v 0.001128 0.749078 -0.218457
v 0.049979 0.000000 -0.246914
v 0.043570 0.749078 -0.214276
v 0.097051 0.000000 -0.232635
v 0.084382 0.749078 -0.201896
v 0.140432 0.000000 -0.209447
v 0.121994 0.860452 -0.181792
v 0.178456 0.000000 -0.178241
v 0.154961 0.860452 -0.154737
v 0.209662 0.000000 -0.140217
v 0.182017 0.860452 -0.121769
v 0.232850 0.000000 -0.096835
v 0.202121 0.749078 -0.084157
v 0.247129 0.000000 -0.049764
v 0.214501 0.801618 -0.043346
v 0.251950 0.000000 -0.000811
v 0.218681 0.801618 -0.000903
v 0.247129 0.000000 0.048142
v 0.214501 0.749078 0.041539
v 0.232850 0.000000 0.095214
v 0.202121 0.597105 0.082351
v 0.209662 0.000000 0.138595
v 0.182017 0.597105 0.119963
v 0.178456 0.000000 0.176620
v 0.155895 0.606975 0.145715
v 0.140432 0.000000 0.207825
v 0.122928 0.606975 0.172770
v 0.097051 0.000000 0.231013
v 0.084382 0.654816 0.200090
v 0.049979 0.000000 0.245292
v 0.043570 0.654816 0.212470
v 0.001026 0.000000 0.250114
v 0.001127 0.597105 0.216650
v -0.047927 0.000000 0.245292
v -0.041315 0.597105 0.212470
v -0.094999 0.000000 0.231013
v -0.082127 0.469844 0.200090
v -0.138380 0.000000 0.207825
v -0.119739 0.394574 0.179986
v -0.176404 0.000000 0.176620
v -0.152706 0.394574 0.152930
v -0.207610 0.000000 0.138595
v -0.179762 0.469844 0.119963
v -0.230798 0.000000 0.095214
v -0.199866 0.597105 0.082351
v -0.245077 0.000000 0.048142
v -0.197304 0.621731 0.034288
v -0.249898 0.000000 -0.000811
v -0.201484 0.621731 -0.008155
v -0.245077 0.000000 -0.049764
v -0.212246 0.597105 -0.043346
v -0.230798 0.000000 -0.096836
v -0.199865 0.597105 -0.084157
v -0.207610 0.000000 -0.140217
v -0.179761 0.597105 -0.121770
v -0.176404 0.000000 -0.178241
v -0.113358 0.597105 -0.181374
v -0.138380 0.000000 -0.209447
v -0.119738 0.253693 -0.181792
v -0.094998 0.000000 -0.232635
v -0.082126 0.253693 -0.201896
v -0.047926 0.000000 -0.246914
v -0.041315 0.597105 -0.214276
v 0.035608 0.749078 -0.174247
v 0.001128 0.749078 -0.177643
v 0.068763 0.749078 -0.164190
v 0.099319 0.860452 -0.147857
v 0.126102 0.860452 -0.125877
v 0.148081 0.860452 -0.099095
v 0.164414 0.749078 -0.068539
v 0.174471 0.801618 -0.035383
v 0.177867 0.801618 -0.000903
v 0.174471 0.749078 0.033577
v 0.164414 0.597105 0.066732
v 0.148081 0.597105 0.097288
v 0.127036 0.606975 0.116855
v 0.100253 0.606975 0.138835
v 0.068763 0.654816 0.162383
v 0.035608 0.654816 0.172441
v 0.001128 0.597105 0.175837
v -0.033353 0.597105 0.172441
v -0.066508 0.469844 0.162383
v -0.097064 0.394574 0.146051
v -0.123847 0.394574 0.124071
v -0.145826 0.469844 0.097288
v -0.162159 0.597105 0.066732
v -0.157275 0.621731 0.026326
v -0.160671 0.621731 -0.008155
v -0.172216 0.597105 -0.035384
v -0.162159 0.597105 -0.068539
v -0.145826 0.597105 -0.099095
v -0.084499 0.597105 -0.152515
v -0.097064 0.253693 -0.147857
v -0.066508 0.253693 -0.164190
v -0.033352 0.597105 -0.174247
v 0.042314 0.624335 -0.172155
v 0.008046 0.621466 -0.177024
v 0.075001 0.626157 -0.160706
v 0.104848 0.626862 -0.143116
v 0.130709 0.626424 -0.120060
v 0.151590 0.658991 -0.092425
v 0.166690 0.656359 -0.061273
v 0.175427 0.618632 -0.027802
v 0.177465 0.614208 0.006704
v 0.172727 0.609127 0.040917
v 0.161395 0.603583 0.073523
v 0.143904 0.597791 0.103269
v 0.120925 0.591973 0.129012
v 0.093343 0.586351 0.149762
v 0.062218 0.581143 0.164722
v 0.028744 0.576549 0.173317
v -0.005791 0.572744 0.175217
v -0.040059 0.569876 0.170349
v -0.072745 0.568054 0.158900
v -0.102593 0.567348 0.141309
v -0.128454 0.567786 0.118254
v -0.149335 0.569351 0.090619
v -0.164435 0.571982 0.059467
v -0.173172 0.575579 0.025995
v -0.175210 0.580003 -0.008511
v -0.170472 0.585084 -0.042724
v -0.159140 0.590627 -0.075330
v -0.141648 0.596420 -0.105076
v -0.118670 0.602238 -0.130818
v -0.091088 0.607859 -0.151568
v -0.059962 0.613067 -0.166528
v -0.026489 0.617662 -0.175124
v 0.034875 0.619416 -0.141221
v 0.006796 0.617066 -0.145210
v 0.061656 0.620909 -0.131840
v 0.086112 0.621487 -0.117427
v 0.107302 0.621128 -0.098536
v 0.124411 0.653977 -0.075893
v 0.136783 0.651821 -0.050368
v 0.143942 0.614743 -0.022943
v 0.145612 0.611118 0.005330
v 0.141730 0.606955 0.033363
v 0.132445 0.602413 0.060079
v 0.118113 0.597667 0.084452
v 0.099285 0.592900 0.105544
v 0.076686 0.588294 0.122546
v 0.051182 0.584027 0.134804
v 0.023756 0.580262 0.141846
v -0.004541 0.577145 0.143403
v -0.032619 0.574794 0.139414
v -0.059401 0.573302 0.130033
v -0.083857 0.572724 0.115620
v -0.105047 0.573082 0.096729
v -0.122156 0.574364 0.074087
v -0.134528 0.576520 0.048562
v -0.141687 0.579467 0.021136
v -0.143357 0.583092 -0.007136
v -0.139475 0.587256 -0.035169
v -0.130189 0.591798 -0.061886
v -0.115858 0.596543 -0.086258
v -0.097030 0.601311 -0.107351
v -0.074430 0.605917 -0.124353
v -0.048927 0.610184 -0.136610
v -0.021500 0.613949 -0.143653
v 0.065931 0.655581 -0.148857
v 0.033245 0.653759 -0.160306
v 0.095779 0.699290 -0.131267
v 0.121640 0.707707 -0.108211
v 0.121557 0.697210 -0.085318
v 0.052587 0.650334 -0.119991
v 0.025805 0.648841 -0.129372
v 0.077043 0.693914 -0.105578
v 0.098233 0.702411 -0.086687
v 0.094377 0.692196 -0.068785
vt 0.375000 0.130000
vt 0.375000 0.130000
vt 0.375000 0.130000
vt 0.375000 0.130000
vt 0.375000 0.130000
vt 0.375000 0.130000
vt 0.375000 0.130000
vt 0.375000 0.130000
vt 0.375000 0.130000
vt 0.375000 0.130000
vt 0.375000 0.130000
vt 0.375000 0.130000
vt 0.375000 0.130000
vt 0.375000 0.130000
vt 0.375000 0.130000
vt 0.375000 0.130000
vt 0.375000 0.130000
vt 0.375000 0.130000
vt 0.375000 0.130000
vt 0.375000 0.130000
vt 0.375000 0.130000
vt 0.375000 0.130000
vt 0.375000 0.130000
vt 0.375000 0.130000
vt 0.375000 0.130000
vt 0.375000 0.130000
vt 0.375000 0.130000
vt 0.375000 0.130000
vt 0.375000 0.130000
vt 0.375000 0.130000
vt 0.375000 0.130000
vt 0.375000 0.130000
vt 0.375000 0.130000
vt 0.375000 0.130000
vt 0.375000 0.130000
vt 0.375000 0.130000
vt 0.375000 0.130000
vt 0.375000 0.130000
vt 0.375000 0.130000
vt 0.375000 0.130000
vt 0.375000 0.130000
vt 0.375000 0.130000
vt 0.375000 0.130000
vt 0.375000 0.130000
vt 0.375000 0.130000
vt 0.375000 0.130000
vt 0.375000 0.130000
vt 0.375000 0.130000
vt 0.375000 0.130000
vt 0.375000 0.130000
vt 0.375000 0.130000
vt 0.375000 0.130000
vt 0.375000 0.130000
vt 0.375000 0.130000
vt 0.375000 0.130000
vt 0.375000 0.130000
vt 0.375000 0.130000
vt 0.375000 0.130000
vt 0.375000 0.130000
vt 0.375000 0.130000
vt 0.375000 0.130000
vt 0.375000 0.130000
vt 0.621094 0.130000
vt 0.621094 0.130000
vt 0.621094 0.130000
vt 0.621094 0.130000
vt 0.375000 0.130000
vt 0.375000 0.130000
vt 0.375000 0.130000
vt 0.375000 0.130000
vt 0.375000 0.130000
vt 0.375000 0.130000
vt 0.621094 0.130000
vt 0.621094 0.130000
vt 0.621094 0.130000
vt 0.621094 0.130000
vt 0.621094 0.130000
vt 0.621094 0.130000
vt 0.621094 0.130000
vt 0.621094 0.130000
vt 0.621094 0.130000
vt 0.621094 0.130000
vt 0.621094 0.130000
vt 0.621094 0.130000
vt 0.621094 0.130000
vt 0.621094 0.130000
vt 0.621094 0.130000
vt 0.621094 0.130000
vt 0.621094 0.130000
vt 0.621094 0.130000
vt 0.621094 0.130000
vt 0.621094 0.130000
vt 0.621094 0.130000
vt 0.621094 0.130000
vt 0.621094 0.130000
vt 0.621094 0.130000
vt 0.621094 0.130000
vt 0.621094 0.130000
vt 0.621094 0.130000
vt 0.621094 0.130000
vt 0.621094 0.130000
vt 0.621094 0.130000
vt 0.621094 0.130000
vt 0.621094 0.130000
vt 0.621094 0.130000
vt 0.621094 0.130000
vt 0.621094 0.130000
vt 0.621094 0.130000
vt 0.621094 0.130000
vt 0.621094 0.130000
vt 0.621094 0.130000
vt 0.621094 0.130000
vt 0.621094 0.130000
vt 0.621094 0.130000
vt 0.621094 0.130000
vt 0.621094 0.130000
vt 0.621094 0.130000
vt 0.621094 0.130000
vt 0.621094 0.130000
vt 0.621094 0.130000
vt 0.621094 0.130000
vt 0.621094 0.130000
vt 0.621094 0.130000
vt 0.621094 0.130000
vt 0.621094 0.130000
vt 0.621094 0.130000
vt 0.621094 0.130000
vt 0.621094 0.130000
vt 0.621094 0.130000
vt 0.621094 0.130000
vt 0.621094 0.130000
vt 0.621094 0.130000
vt 0.121094 0.133906
vt 0.121094 0.133906
vt 0.121094 0.133906
vt 0.121094 0.133906
vt 0.375000 0.130000
vt 0.375000 0.130000
vt 0.375000 0.130000
vt 0.375000 0.130000
vt 0.121094 0.133906
vt 0.121094 0.133906
vt 0.121094 0.133906
vt 0.121094 0.133906
vt 0.375000 0.130000
vt 0.375000 0.130000
vt 0.121094 0.133906
vt 0.121094 0.133906
vt 0.375000 0.130000
vt 0.375000 0.130000
vt 0.121094 0.133906
vt 0.121094 0.133906
vt 0.375000 0.130000
vt 0.375000 0.130000
vt 0.121094 0.133906
vt 0.121094 0.133906
vt 0.375000 0.130000
vt 0.375000 0.130000
vt 0.375000 0.130000
vt 0.375000 0.130000
vt 0.375000 0.130000
vt 0.375000 0.130000
vt 0.375000 0.130000
vt 0.375000 0.130000
vt 0.375000 0.130000
vt 0.375000 0.130000
vt 0.375000 0.130000
vt 0.375000 0.130000
vt 0.375000 0.130000
vt 0.375000 0.130000
vt 0.375000 0.130000
vt 0.375000 0.130000
vt 0.375000 0.130000
vt 0.375000 0.130000
vt 0.375000 0.130000
vt 0.375000 0.130000
vt 0.375000 0.130000
vt 0.375000 0.130000
vt 0.375000 0.130000
vt 0.375000 0.130000
vt 0.375000 0.130000
vt 0.375000 0.130000
vt 0.375000 0.130000
vt 0.375000 0.130000
vt 0.375000 0.130000
vt 0.375000 0.130000
vt 0.375000 0.130000
vt 0.375000 0.130000
vt 0.375000 0.130000
vt 0.375000 0.130000
vt 0.375000 0.130000
vt 0.375000 0.130000
vt 0.375000 0.130000
vt 0.375000 0.130000
vt 0.121094 0.133906
vt 0.121094 0.133906
vt 0.121094 0.133906
vt 0.121094 0.133906
vt 0.375000 0.130000
vt 0.375000 0.130000
vt 0.121094 0.133906
vt 0.121094 0.133906
vt 0.121094 0.133906
vt 0.121094 0.133906
vt 0.121094 0.133906
vt 0.121094 0.133906
vt 0.121094 0.133906
vt 0.121094 0.133906
vt 0.121094 0.133906
vt 0.121094 0.133906
vt 0.121094 0.133906
vt 0.121094 0.133906
vt 0.121094 0.133906
vt 0.121094 0.133906
vt 0.121094 0.133906
vt 0.121094 0.133906
vt 0.121094 0.133906
vt 0.121094 0.133906
vt 0.121094 0.133906
vt 0.121094 0.133906
vt 0.121094 0.133906
vt 0.121094 0.133906
vt 0.121094 0.133906
vt 0.121094 0.133906
vt 0.121094 0.133906
vt 0.121094 0.133906
vt 0.121094 0.133906
vt 0.121094 0.133906
vt 0.121094 0.133906
vt 0.121094 0.133906
vt 0.121094 0.133906
vt 0.121094 0.133906
vt 0.121094 0.133906
vt 0.121094 0.133906
vt 0.123047 0.128047
vt 0.123047 0.128047
vt 0.123047 0.128047
vt 0.123047 0.128047
vt 0.123047 0.128047
vt 0.123047 0.128047
vt 0.123047 0.128047
vt 0.123047 0.128047
vt 0.123047 0.128047
vt 0.123047 0.128047
vt 0.123047 0.128047
vt 0.123047 0.128047
vt 0.123047 0.128047
vt 0.123047 0.128047
vt 0.123047 0.128047
vt 0.123047 0.128047
vt 0.123047 0.128047
vt 0.123047 0.128047
vt 0.123047 0.128047
vt 0.123047 0.128047
vt 0.123047 0.128047
vt 0.123047 0.128047
vt 0.123047 0.128047
vt 0.123047 0.128047
vt 0.123047 0.128047
vt 0.123047 0.128047
vt 0.123047 0.128047
vt 0.123047 0.128047
vt 0.123047 0.128047
vt 0.123047 0.128047
vt 0.123047 0.128047
vt 0.123047 0.128047
vt 0.123047 0.128047
vt 0.123047 0.128047
vt 0.123047 0.128047
vt 0.123047 0.128047
vt 0.123047 0.128047
vt 0.123047 0.128047
vt 0.123047 0.128047
vt 0.123047 0.128047
vt 0.123047 0.128047
vt 0.123047 0.128047
vt 0.123047 0.128047
vt 0.123047 0.128047
vt 0.123047 0.128047
vt 0.123047 0.128047
vt 0.123047 0.128047
vt 0.123047 0.128047
vt 0.123047 0.128047
vt 0.123047 0.128047
vt 0.375000 0.130000
vt 0.375000 0.130000
vt 0.123047 0.128047
vt 0.123047 0.128047
vt 0.123047 0.128047
vt 0.123047 0.128047
vt 0.123047 0.128047
vt 0.123047 0.128047
vt 0.123047 0.128047
vt 0.123047 0.128047
vt 0.123047 0.128047
vt 0.123047 0.128047
vt 0.121094 0.133906
vt 0.123047 0.128047
vt 0.123047 0.128047
vt 0.123047 0.128047
vt 0.123047 0.128047
vt 0.123047 0.128047
vt 0.123047 0.128047
vt 0.123047 0.128047
vt 0.123047 0.128047
vt 0.375000 0.130000
vt 0.121094 0.133906
vt 0.121094 0.133906
vt 0.375000 0.130000
vt 0.375000 0.130000
vn -0.0406 0.0470 -0.9981
vn 0.0564 0.0451 -0.9974
vn 0.1949 0.0444 -0.9798
vn 0.3781 0.0423 -0.9248
vn 0.3592 0.0427 -0.9323
vn 0.5971 0.0391 -0.8012
vn 0.5343 0.0400 -0.8444
vn 0.7066 0.0386 -0.7066
vn 0.8012 0.0391 -0.5971
vn 0.8444 0.0400 -0.5343
vn 0.9265 0.0418 -0.3740
vn 0.9278 0.0419 -0.3706
vn 0.9855 0.0419 -0.1642
vn 0.9775 0.0422 -0.2069
vn 0.9986 0.0419 -0.0312
vn 0.9990 0.0422 0.0122
vn 0.9881 0.0434 0.1477
vn 0.9681 0.0462 0.2464
vn 0.9133 0.0514 0.4041
vn 0.9063 0.0523 0.4193
vn 0.8140 0.0574 0.5779
vn 0.8193 0.0573 0.5704
vn 0.6872 0.0610 0.7239
vn 0.6918 0.0608 0.7195
vn 0.5829 0.0593 0.8104
vn 0.5911 0.0598 0.8044
vn 0.3796 0.0532 0.9236
vn 0.4231 0.0543 0.9044
vn 0.2259 0.0517 0.9728
vn 0.1784 0.0523 0.9826
vn 0.0019 0.0543 0.9985
vn -0.0167 0.0546 0.9984
vn -0.1464 0.0572 0.9876
vn -0.2368 0.0595 0.9697
vn -0.3960 0.0646 0.9160
vn -0.4495 0.0697 0.8906
vn -0.5661 0.0797 0.8205
vn -0.5796 0.0807 0.8109
vn -0.6943 0.0797 0.7153
vn -0.6822 0.0807 0.7267
vn -0.8211 0.0646 0.5671
vn -0.7857 0.0697 0.6146
vn -0.8363 0.0622 0.5447
vn -0.9880 0.0668 0.1390
vn -0.9907 0.0738 0.1144
vn -0.9903 0.0726 0.1185
vn -0.9941 0.0739 0.0798
vn -0.9946 0.0725 0.0745
vn -0.9965 0.0665 0.0509
vn -0.9555 0.0557 -0.2898
vn -0.9224 0.0559 -0.3821
vn -0.8016 0.0598 -0.5949
vn -0.8018 0.0598 -0.5945
vn -0.7058 0.0628 -0.7056
vn -0.3182 0.0578 -0.9463
vn -0.3709 0.0828 -0.9250
vn -0.3944 0.0941 -0.9141
vn -0.5187 0.0939 -0.8498
vn -0.5069 0.1023 -0.8559
vn -0.2338 0.5925 -0.7709
vn -0.5451 0.0747 -0.8350
vn -0.1783 0.0490 -0.9828
vn -0.8025 0.0032 0.5967
vn -0.7204 0.0031 0.6936
vn -0.7019 0.0031 0.7123
vn -0.8330 0.0036 0.5533
vn -0.8269 0.5564 0.0814
vn 0.0622 0.7726 -0.6318
vn -0.8332 0.3278 -0.4453
vn 0.0965 0.9884 -0.1175
vn 0.0900 0.9899 -0.1097
vn 0.0965 0.9884 -0.1176
vn 0.0894 0.9900 -0.1089
vn 0.5115 0.3763 0.7725
vn 0.5643 0.4568 0.6877
vn 0.5121 0.3771 0.7717
vn 0.0000 1.0000 0.0000
vn 0.4511 0.2906 0.8439
vn -0.9644 0.1801 0.1935
vn -0.9509 0.1118 0.2885
vn -0.9645 0.1807 0.1927
vn -0.0790 0.5925 0.8017
vn -0.8574 0.3763 -0.3510
vn -0.9156 0.2906 -0.2778
vn -0.8568 0.3771 -0.3518
vn 0.6568 0.6674 -0.3511
vn 0.1488 0.8586 0.4905
vn -0.9645 0.2465 0.0950
vn -0.2813 0.2465 0.9274
vn -0.7845 0.4568 -0.4193
vn 0.4453 0.3278 0.8332
vn 0.7728 -0.0252 -0.6342
vn -0.6327 -0.1904 0.7507
vn -0.0914 0.0045 0.9958
vn 0.0635 0.0058 0.9980
vn -0.0257 0.0050 0.9997
vn -0.6153 0.0043 0.7883
vn -0.4769 0.0059 0.8789
vn -0.4175 0.0090 0.9086
vn -0.5767 0.0045 0.8170
vn -0.9269 0.0039 0.3752
vn -0.9400 0.0037 0.3412
vn -0.6776 0.0044 0.7355
vn -0.7222 0.0048 0.6917
vn -0.9909 0.0022 0.1349
vn -0.9909 0.0022 0.1343
vn -0.7880 0.0066 0.6156
vn -0.8313 0.0162 0.5556
vn -0.9996 0.0016 0.0296
vn -0.9995 0.0014 -0.0301
vn -0.8682 0.0253 0.4955
vn -0.9917 0.0012 -0.1283
vn -0.9744 0.0014 -0.2246
vn 0.9511 -0.2877 -0.1126
vn 0.9631 -0.2308 -0.1384
vn 0.9537 -0.2768 -0.1176
vn -0.9521 0.0016 -0.3059
vn 0.9530 -0.2934 -0.0757
vn 0.9574 -0.2807 -0.0681
vn 0.8720 0.0034 0.4895
vn 0.9733 -0.2266 -0.0358
vn -0.6574 -0.3102 -0.6867
vn -0.6938 -0.3193 -0.6455
vn -0.6025 -0.2956 -0.7413
vn 0.9358 0.0070 0.3523
vn 0.9507 0.0081 0.3099
vn 0.8976 0.0047 0.4407
vn -0.5637 -0.1711 -0.8081
vn -0.5559 -0.1131 -0.8235
vn -0.3680 -0.0118 -0.9297
vn -0.3904 -0.0154 -0.9205
vn -0.2127 0.0047 0.9771
vn -0.2154 0.0047 0.9765
vn -0.3506 -0.8297 -0.4344
vn -0.2307 0.0046 -0.9730
vn -0.1654 0.0065 -0.9862
vn -0.4289 0.0043 0.9033
vn -0.4061 0.0045 0.9138
vn 0.0708 -0.0443 0.9965
vn -0.0214 0.0126 -0.9997
vn 0.0415 0.0164 -0.9990
vn -0.6242 0.0032 0.7813
vn -0.5764 0.0034 0.8172
vn -0.4443 0.0004 -0.8959
vn -0.4525 0.0004 -0.8918
vn -0.3577 0.0011 -0.9339
vn 0.1185 0.0209 -0.9927
vn -0.2777 0.0017 -0.9607
vn -0.3337 0.0132 0.9426
vn -0.1176 0.9831 0.1400
vn -0.1133 0.9839 0.1380
vn -0.1162 0.9834 0.1394
vn -0.1161 0.9834 0.1393
vn -0.1158 0.9835 0.1392
vn -0.1268 0.9814 0.1444
vn -0.1013 0.9860 0.1324
vn 0.1071 0.6413 0.7598
vn 0.3322 0.2695 -0.9039
vn 0.3069 0.3483 -0.8857
vn 0.3101 0.3387 -0.8883
vn 0.4777 0.2171 0.8512
vn -0.2897 -0.3467 0.8921
vn -0.2994 -0.2665 0.9162
vn -0.2911 -0.3357 0.8959
vn 0.1676 0.8724 0.4591
vn -0.7451 0.5826 -0.3247
vn -0.2978 0.9533 -0.0504
vn 0.6368 0.1903 -0.7472
vn -0.9477 -0.1883 -0.2579
vn -0.8205 -0.3412 0.4587
vn -0.2768 -0.4311 0.8588
vn 0.8077 0.3406 -0.4812
vn 0.2768 0.4311 -0.8588
s 1
f 1/1/1 2/2/2 4/3/3 3/4/3
f 3/4/3 4/3/3 6/5/4 5/6/5
f 5/6/5 6/5/4 8/7/6 7/8/7
f 7/8/7 8/7/6 10/9/8 9/10/8
f 9/10/8 10/9/8 12/11/9 11/12/10
f 11/12/10 12/11/9 14/13/11 13/14/12
f 13/14/12 14/13/11 16/15/13 15/16/14
f 15/16/14 16/15/13 18/17/15 17/18/16
f 17/18/16 18/17/15 20/19/17 19/20/18
f 19/20/18 20/19/17 22/21/19 21/22/20
f 21/22/20 22/21/19 24/23/21 23/24/22
f 23/24/22 24/23/21 26/25/23 25/26/24
f 25/26/24 26/25/23 28/27/25 27/28/26
f 27/28/26 28/27/25 30/29/27 29/30/28
f 29/30/28 30/29/27 32/31/29 31/32/30
f 31/32/30 32/31/29 34/33/31 33/34/32
f 33/34/32 34/33/31 36/35/33 35/36/34
f 35/36/34 36/35/33 38/37/35 37/38/36
f 37/38/36 38/37/35 40/39/37 39/40/38
f 39/40/38 40/39/37 42/41/39 41/42/40
f 41/42/40 42/41/39 44/43/41 43/44/42
f 43/44/42 44/43/41 46/45/43 45/46/43
f 45/46/44 46/45/44 48/47/45 47/48/46
f 47/48/46 48/47/45 50/49/47 49/50/48
f 49/50/48 50/49/47 52/51/49 51/52/49
f 51/52/50 52/51/50 54/53/51 53/54/51
f 53/54/51 54/53/51 56/55/52 55/56/53
f 55/56/53 56/55/52 58/57/54 57/58/54
f 57/58/55 58/57/55 60/59/56 59/60/57
f 59/60/57 60/59/56 62/61/58 61/62/59
f 16/63/60 14/64/60 71/65/60 72/66/60
f 61/62/59 62/61/58 64/67/61 63/68/61
f 63/68/62 64/67/62 2/2/2 1/1/1
f 70/69/63 69/70/64 101/71/65 102/72/66
f 34/73/67 32/74/67 80/75/67 81/76/67
f 52/77/68 50/78/68 89/79/68 90/80/68
f 8/81/69 6/82/69 67/83/69 68/84/69
f 26/85/70 24/86/71 76/87/72 77/88/73
f 44/89/74 42/90/75 85/91/75 86/92/76
f 62/93/77 60/94/77 94/95/77 95/96/77
f 18/97/77 16/63/77 72/66/77 73/98/77
f 36/99/77 34/73/77 81/76/77 82/100/77
f 54/101/77 52/77/77 90/80/77 91/102/77
f 10/103/77 8/81/77 68/84/77 69/104/77
f 28/105/77 26/85/70 77/88/73 78/106/77
f 46/107/78 44/89/74 86/92/76 87/108/78
f 64/109/79 62/93/80 95/96/80 96/110/81
f 20/111/82 18/97/82 73/98/82 74/112/82
f 38/113/83 36/99/84 82/100/84 83/114/85
f 56/115/77 54/101/77 91/102/77 92/116/77
f 12/117/77 10/103/77 69/104/77 70/118/77
f 30/119/86 28/105/86 78/106/86 79/120/86
f 48/121/87 46/107/87 87/108/87 88/122/87
f 4/123/77 2/124/77 66/125/77 65/126/77
f 2/124/88 64/109/79 96/110/81 66/125/88
f 22/127/89 20/111/89 74/112/89 75/128/89
f 40/129/90 38/113/83 83/114/85 84/130/90
f 58/131/77 56/115/77 92/116/77 93/132/77
f 14/64/91 12/117/91 70/118/91 71/65/91
f 32/74/77 30/119/77 79/120/77 80/75/77
f 50/78/77 48/121/77 88/122/77 89/79/77
f 6/82/77 4/123/77 65/126/77 67/83/77
f 24/86/71 22/127/77 75/128/77 76/87/72
f 42/90/77 40/129/77 84/130/77 85/91/77
f 60/94/92 58/131/92 93/132/92 94/95/92
f 132/133/93 133/134/93 169/135/93 168/136/93
f 66/137/94 96/138/95 128/139/95 98/140/96
f 84/141/97 83/142/98 115/143/99 116/144/100
f 71/145/101 70/69/63 102/72/66 103/146/102
f 85/147/103 84/141/97 116/144/100 117/148/104
f 72/149/105 71/145/101 103/146/102 104/150/106
f 86/151/107 85/147/103 117/148/104 118/152/108
f 73/153/109 72/149/105 104/150/106 105/154/110
f 87/155/111 86/151/107 118/152/108 119/156/111
f 74/157/112 73/153/109 105/154/110 106/158/113
f 88/159/114 87/160/115 119/161/115 120/162/116
f 75/163/117 74/157/112 106/158/113 107/164/117
f 89/165/118 88/159/114 120/162/116 121/166/119
f 76/167/120 75/163/120 107/164/120 108/168/120
f 90/169/121 89/165/118 121/166/119 122/170/121
f 77/171/122 76/167/123 108/168/123 109/172/124
f 91/173/125 90/169/126 122/170/126 123/174/127
f 78/175/128 77/171/122 109/172/124 110/176/129
f 92/177/120 91/173/125 123/174/127 124/178/120
f 79/179/130 78/175/128 110/176/129 111/180/131
f 65/181/132 66/137/94 98/140/96 97/182/133
f 93/183/134 92/177/134 124/178/134 125/184/134
f 80/185/135 79/179/130 111/180/131 112/186/136
f 67/187/137 65/181/132 97/182/133 99/188/138
f 94/189/139 93/183/139 125/184/139 126/190/139
f 81/191/140 80/185/135 112/186/136 113/192/141
f 68/193/142 67/187/137 99/188/138 100/194/143
f 95/195/144 94/196/145 126/197/145 127/198/146
f 82/199/147 81/191/140 113/192/141 114/200/147
f 69/70/64 68/193/142 100/194/143 101/71/65
f 96/201/148 95/195/144 127/198/146 128/202/148
f 83/142/98 82/203/149 114/204/149 115/143/99
f 129/205/150 130/206/151 160/207/151 159/208/151 158/209/151 157/210/151 156/211/151 155/212/151 154/213/151 153/214/151 152/215/151 151/216/151 150/217/151 149/218/151 148/219/151 147/220/151 146/221/151 145/222/151 144/223/151 143/224/151 142/225/151 141/226/151 140/227/151 139/228/151 138/229/151 137/230/151 136/231/152 135/232/153 134/233/154 133/134/155 132/133/155 131/234/155
f 98/235/156 128/236/156 160/237/151 130/238/151
f 116/239/156 115/240/156 147/241/151 148/242/151
f 103/243/156 102/244/156 134/245/154 135/246/153
f 117/247/156 116/239/156 148/242/151 149/248/151
f 104/249/157 103/243/157 135/246/157 136/250/157
f 118/251/156 117/247/156 149/248/151 150/252/151
f 105/253/156 104/249/156 136/250/152 137/254/151
f 119/255/156 118/251/156 150/252/151 151/256/151
f 106/257/156 105/253/156 137/254/151 138/258/151
f 120/259/156 119/255/156 151/256/151 152/260/151
f 107/261/156 106/257/156 138/258/151 139/262/151
f 121/263/156 120/259/156 152/260/151 153/264/151
f 108/265/156 107/261/156 139/262/151 140/266/151
f 122/267/156 121/263/156 153/264/151 154/268/151
f 109/269/156 108/265/156 140/266/151 141/270/151
f 123/271/156 122/267/156 154/268/151 155/272/151
f 110/273/156 109/269/156 141/270/151 142/274/151
f 124/275/156 123/271/156 155/272/151 156/276/151
f 111/277/156 110/273/156 142/274/151 143/278/151
f 97/279/156 98/235/156 130/238/151 129/280/150
f 125/281/156 124/275/156 156/276/151 157/282/151
f 112/283/156 111/277/156 143/278/151 144/284/151
f 100/194/158 99/188/159 161/285/160 163/286/158
f 126/287/156 125/281/156 157/282/151 158/288/151
f 113/289/156 112/283/156 144/284/151 145/290/151
f 134/245/161 102/244/161 165/291/161 170/292/161
f 127/293/156 126/287/156 158/288/151 159/294/151
f 114/295/156 113/289/156 145/290/151 146/296/151
f 131/234/162 132/133/163 168/136/163 166/297/164
f 128/236/156 127/293/156 159/294/151 160/237/151
f 115/240/156 114/295/156 146/296/151 147/241/151
f 165/291/165 164/298/165 169/299/165 170/292/165
f 161/300/156 162/301/156 167/302/156 166/303/156
f 163/304/166 161/300/166 166/303/166 168/305/166
f 164/298/167 163/304/167 168/305/167 169/299/167
f 101/71/168 100/194/168 163/286/168 164/306/168
f 97/279/169 129/280/169 167/302/169 162/301/169
f 133/134/170 134/233/170 170/307/170 169/135/170
f 129/205/171 131/234/162 166/297/164 167/308/171
f 102/72/172 101/71/172 164/306/172 165/309/172
f 99/188/159 97/182/173 162/310/173 161/285/160
