# Blender v2.76 (sub 0) OBJ File: 'Common.blend'
# www.blender.org
o Spruce_Icosphere.000
v -0.024354 3.035969 -0.049630
v 0.028818 3.046059 -0.042947
v 0.055157 3.035969 0.003724
v 0.022784 3.046059 0.046431
v 0.000000 3.427203 -0.000000
v -0.030803 3.035969 0.045906
v -0.051602 3.046059 -0.003484
v -0.377689 2.400324 -0.305836
v 0.071118 2.354751 -0.449070
v 0.453706 2.400324 -0.174170
v 0.353347 2.354751 0.286125
v -0.076017 2.400324 0.480006
v -0.424465 2.354751 0.162945
v 0.046869 2.352790 -0.096028
v 0.099726 2.366219 -0.006946
v 0.059728 2.352790 0.088602
v -0.043848 2.366219 0.089838
v -0.106596 2.352790 0.007424
v -0.055878 2.366219 -0.082893
v 0.092870 1.836225 -0.610691
v 0.538231 1.877250 -0.210422
v 0.482439 1.836225 0.385773
v -0.086885 1.877250 0.571332
v -0.575309 1.836225 0.224917
v -0.451346 1.877250 -0.360911
v -0.022378 1.747894 -0.151281
v 0.112102 1.772989 -0.088897
v 0.142202 1.747894 0.056260
v 0.020936 1.772989 0.141531
v -0.119825 1.747894 0.095020
v -0.133038 1.772989 -0.052635
v 0.117286 1.172953 -0.728868
v 0.645400 1.235588 -0.245921
v 0.572575 1.172953 0.466006
v -0.109727 1.235588 0.681893
v -0.689861 1.172953 0.262861
v -0.535674 1.235588 -0.435973
v 0.027169 0.646218 -0.153489
v 0.137067 0.687646 -0.049787
v 0.119342 0.646218 0.100273
v -0.025417 0.687646 0.143597
v -0.146510 0.646218 0.053216
v -0.111651 0.687646 -0.093810
v 0.157686 0.581106 -0.890860
v 0.795546 0.646013 -0.288964
v 0.692665 0.581106 0.581990
v -0.147523 0.646012 0.833445
v -0.850351 0.581106 0.308869
v -0.648024 0.646013 -0.544480
v 0.029773 0.000753 -0.168203
v 0.150207 -0.000753 -0.054559
v 0.130782 0.000753 0.109886
v -0.027854 -0.000753 0.157363
v -0.160555 0.000753 0.058318
v -0.122354 -0.000753 -0.102803
v -0.049895 2.252926 0.398331
v 0.342063 2.222691 0.259073
v 0.369912 2.252926 -0.155956
v 0.053332 2.222691 -0.425772
v -0.320018 2.252926 -0.242376
v -0.395395 2.222691 0.166698
v 0.418300 1.686534 -0.165955
v 0.069937 1.644756 -0.475908
v -0.352871 1.686534 -0.279281
v -0.447116 1.644756 0.177386
v -0.065430 1.686534 0.445235
v 0.377179 1.644756 0.298520
v 0.093996 0.972599 -0.635585
v -0.470990 1.022897 -0.373467
v -0.597432 0.972599 0.236390
v -0.087938 1.022897 0.594623
v 0.503435 0.972599 0.399195
v 0.558928 1.022897 -0.221155
vt 0.125000 0.125000
vt 0.625000 0.125000
vt 0.375000 0.125000
vn -0.653200 0.359800 0.666200
vn -0.250300 0.359800 -0.898800
vn 0.415400 0.359800 0.835500
vn 0.903600 0.359800 0.232600
vn -0.931200 0.359800 -0.057900
vn 0.515800 0.359800 -0.777500
vn 0.321000 0.384000 0.865700
vn 0.199600 -0.474700 0.857200
vn -0.515100 -0.482800 0.708200
vn -0.842200 -0.474700 -0.255700
vn -0.355800 -0.482800 -0.800200
vn 0.642600 -0.474700 -0.601500
vn 0.870900 -0.482800 0.091900
vn 0.579400 0.423600 -0.696300
vn 0.589300 0.384000 -0.710900
vn -0.370200 0.381800 -0.846900
vn -0.548300 0.381800 0.744000
vn 0.918500 0.381800 0.102900
vn -0.910300 0.384000 -0.154900
vn -0.495000 -0.650200 0.576400
vn -0.743300 -0.651000 -0.154200
vn -0.251600 -0.650200 -0.716900
vn 0.505200 -0.651000 -0.566600
vn 0.746700 -0.650200 0.140500
vn 0.238100 -0.651000 0.720800
vn -0.317300 0.495400 -0.808600
vn -0.341000 0.422800 -0.839600
vn -0.556600 0.422800 0.715100
vn 0.897600 0.422800 0.124500
vn -0.892700 0.423600 -0.153700
vn 0.313300 0.423600 0.850000
vn -0.421200 -0.663300 0.618500
vn -0.739700 -0.664700 -0.104900
vn -0.325000 -0.663300 -0.674100
vn 0.460700 -0.664700 -0.588200
vn 0.746300 -0.663300 0.055500
vn 0.279000 -0.664700 0.693100
vn -0.392700 0.018700 -0.919500
vn -0.541600 0.495400 0.679100
vn 0.858900 0.495400 0.129500
vn -0.854000 0.497400 -0.152700
vn 0.294700 0.497400 0.815900
vn 0.559200 0.497400 -0.663200
vn 0.022000 -0.991800 0.126200
vn -0.064100 -0.991800 -0.110900
vn -0.120300 -0.991800 -0.044000
vn 0.128100 -0.991800 -0.000100
vn 0.098300 -0.991800 -0.082100
vn -0.064000 -0.991800 0.111000
vn -0.000000 -1.000000 -0.000000
vn -0.599900 0.018700 0.799800
vn 0.992600 0.018700 0.119600
vn -0.973400 0.018700 -0.228400
vn 0.288900 0.018700 0.957200
vn 0.684500 0.018700 -0.728800
vn -0.925600 0.370400 -0.077600
vn 0.929700 0.366600 0.035100
vn -0.495200 0.366600 0.787600
vn -0.434500 0.366600 -0.822700
vn 0.530000 0.370400 -0.762800
vn 0.395600 0.370400 0.840400
vn 0.276800 0.412600 0.867900
vn -0.890000 0.412600 -0.194200
vn 0.893400 0.415700 0.170400
vn -0.594300 0.415700 0.688500
vn -0.299100 0.415700 -0.858900
vn 0.613200 0.412600 -0.673600
vn 0.509400 0.477500 -0.715900
vn 0.365300 0.477500 0.799100
vn -0.874700 0.477500 -0.083200
vn 0.876800 0.474900 0.075900
vn -0.504100 0.474900 0.721400
vn -0.372700 0.474900 -0.797200
s off
f 12/1/1 5/1/1 13/1/1
f 8/1/2 5/1/2 9/1/2
f 11/1/3 5/1/3 12/1/3
f 10/1/4 5/1/4 11/1/4
f 13/1/5 5/1/5 8/1/5
f 9/1/6 5/1/6 10/1/6
f 57/1/7 56/1/7 23/1/7 22/1/7
f 2/1/8 1/1/8 8/1/8 9/1/8
f 3/1/9 2/1/9 9/1/9 10/1/9
f 4/1/10 3/1/10 10/1/10 11/1/10
f 6/1/11 4/1/11 11/1/11 12/1/11
f 7/1/12 6/1/12 12/1/12 13/1/12
f 1/1/13 7/1/13 13/1/13 8/1/13
f 63/1/14 62/1/14 33/1/14 32/1/14
f 59/1/15 58/1/15 21/1/15 20/1/15
f 60/1/16 59/1/16 20/1/16 25/1/16
f 56/1/17 61/1/17 24/1/17 23/1/17
f 58/1/18 57/1/18 22/1/18 21/1/18
f 61/1/19 60/1/19 25/1/19 24/1/19
f 15/1/20 14/1/20 20/1/20 21/1/20
f 16/1/21 15/1/21 21/1/21 22/1/21
f 17/1/22 16/1/22 22/1/22 23/1/22
f 18/1/23 17/1/23 23/1/23 24/1/23
f 19/1/24 18/1/24 24/1/24 25/1/24
f 14/1/25 19/1/25 25/1/25 20/1/25
f 69/1/26 68/1/26 44/1/26 49/1/26
f 64/1/27 63/1/27 32/1/27 37/1/27
f 66/1/28 65/1/28 36/1/28 35/1/28
f 62/1/29 67/1/29 34/1/29 33/1/29
f 65/1/30 64/1/30 37/1/30 36/1/30
f 67/1/31 66/1/31 35/1/31 34/1/31
f 27/1/32 26/1/32 32/1/32 33/1/32
f 28/1/33 27/1/33 33/1/33 34/1/33
f 29/1/34 28/1/34 34/1/34 35/1/34
f 30/1/35 29/1/35 35/1/35 36/1/35
f 31/1/36 30/1/36 36/1/36 37/1/36
f 26/1/37 31/1/37 37/1/37 32/1/37
f 43/2/38 38/2/38 50/2/38 55/2/38
f 71/1/39 70/1/39 48/1/39 47/1/39
f 73/1/40 72/1/40 46/1/40 45/1/40
f 70/1/41 69/1/41 49/1/41 48/1/41
f 72/1/42 71/1/42 47/1/42 46/1/42
f 68/1/43 73/1/43 45/1/43 44/1/43
f 39/1/44 38/1/44 44/1/44 45/1/44
f 40/1/45 39/1/45 45/1/45 46/1/45
f 41/1/46 40/1/46 46/1/46 47/1/46
f 42/1/47 41/1/47 47/1/47 48/1/47
f 43/1/48 42/1/48 48/1/48 49/1/48
f 38/1/49 43/1/49 49/1/49 44/1/49
f 50/2/50 51/2/50 52/2/50 53/2/50 54/2/50 55/2/50
f 41/2/51 42/2/51 54/2/51 53/2/51
f 39/2/52 40/2/52 52/2/52 51/2/52
f 42/2/53 43/2/53 55/2/53 54/2/53
f 40/2/54 41/2/54 53/2/54 52/2/54
f 38/2/55 39/2/55 51/2/55 50/2/55
f 6/3/56 7/3/56 60/3/56 61/3/56
f 2/3/57 3/3/57 57/3/57 58/3/57
f 4/3/58 6/3/58 61/3/58 56/3/58
f 7/3/59 1/3/59 59/3/59 60/3/59
f 1/3/60 2/3/60 58/3/60 59/3/60
f 3/3/61 4/3/61 56/3/61 57/3/61
f 16/3/62 17/3/62 66/3/62 67/3/62
f 18/3/63 19/3/63 64/3/63 65/3/63
f 15/3/64 16/3/64 67/3/64 62/3/64
f 17/3/65 18/3/65 65/3/65 66/3/65
f 19/3/66 14/3/66 63/3/66 64/3/66
f 14/3/67 15/3/67 62/3/67 63/3/67
f 26/3/68 27/3/68 73/3/68 68/3/68
f 28/3/69 29/3/69 71/3/69 72/3/69
f 30/3/70 31/3/70 69/3/70 70/3/70
f 27/3/71 28/3/71 72/3/71 73/3/71
f 29/3/72 30/3/72 70/3/72 71/3/72
f 31/3/73 26/3/73 68/3/73 69/3/73
