# Blender v2.80 (sub 75) OBJ File: ''
# www.blender.org
o Cube_Cube.001
v -0.079630 0.000000 0.079756
v -0.067141 1.238084 0.067141
v -0.151293 -0.022576 -0.085824
v -0.103104 1.215508 -0.064637
v 0.068066 0.000000 0.071967
v 0.067141 1.238084 0.067141
v 0.133556 -0.017958 -0.075660
v 0.104479 1.220127 -0.046583
v -0.069055 1.239802 -0.151019
v -0.117245 0.001717 -0.172206
v 0.094304 0.001717 -0.180096
v 0.065228 1.239802 -0.151019
vt 0.371094 0.128906
vt 0.371094 0.128906
vt 0.371094 0.128906
vt 0.371094 0.128906
vt 0.371094 0.128906
vt 0.371094 0.128906
vt 0.371094 0.128906
vt 0.371094 0.128906
vt 0.371094 0.128906
vt 0.371094 0.128906
vt 0.371094 0.128906
vt 0.371094 0.128906
vn -0.9411 0.0219 0.3373
vn 0.9375 0.0302 -0.3467
vn 0.9309 0.0077 0.3652
vn 0.0276 0.0069 0.9996
vn -0.0228 0.0205 -0.9995
vn 0.0101 -0.9744 -0.2248
vn -0.0250 0.9740 0.2251
vn -0.9335 0.0424 -0.3560
s off
f 1/1/1 2/2/1 4/3/1 3/4/1
f 8/5/2 7/6/2 11/7/2 12/8/2
f 7/6/3 8/5/3 6/9/3 5/10/3
f 5/10/4 6/9/4 2/2/4 1/1/4
f 10/11/5 9/12/5 12/8/5 11/7/5
f 7/6/6 3/4/6 10/11/6 11/7/6
f 4/3/7 8/5/7 12/8/7 9/12/7
f 3/4/8 4/3/8 9/12/8 10/11/8
o Icosphere_Icosphere.002
v 0.000000 1.029915 0.000000
v 0.582524 1.603275 0.380805
v -0.121485 1.575155 0.682817
v -0.832352 1.544336 0.000000
v -0.257206 1.544332 -0.791613
v 0.673388 1.544332 -0.489239
v 0.085316 2.683841 0.361006
v -0.240680 2.683841 0.195354
v -0.240680 2.683841 -0.340695
v 0.085316 2.683841 -0.506347
v 0.379019 2.664814 -0.116144
v -0.009310 3.214885 0.141039
v -0.151181 1.168896 0.465295
v 0.244874 1.213654 0.278366
v 0.244625 1.471263 0.752865
v 0.791612 1.471265 0.000000
v 0.395805 1.168896 -0.287566
v -0.482907 1.125437 -0.009944
v -0.640428 1.471264 0.465296
v -0.151181 1.168896 -0.465295
v -0.640428 1.471264 -0.465296
v 0.244625 1.471263 -0.752865
v 0.669599 2.048519 0.217563
v 0.714848 1.942072 -0.223153
v -0.000000 2.048519 0.704057
v 0.404784 2.189626 0.527228
v -0.669599 2.048519 0.217563
v -0.413835 2.048519 0.569594
v -0.271742 2.048519 -0.569594
v -0.669599 2.048519 -0.217563
v 0.413834 2.048519 -0.569594
v 0.102592 2.117079 -0.641083
v 0.313864 2.804588 0.289385
v -0.056842 2.701703 0.379203
v -0.398658 2.804587 -0.072670
v -0.173938 2.746807 -0.509934
v 0.313864 2.804588 -0.434725
v 0.070435 3.039865 0.289383
v 0.238641 3.039864 -0.072670
v -0.146997 3.091579 0.159508
v -0.144886 3.105988 -0.250531
v 0.093105 2.987966 -0.293725
vt 0.125000 0.119004
vt 0.125000 0.119004
vt 0.125000 0.119004
vt 0.125000 0.119004
vt 0.125000 0.119004
vt 0.125000 0.119004
vt 0.125000 0.119004
vt 0.125000 0.119004
vt 0.125000 0.119004
vt 0.125000 0.119004
vt 0.125000 0.119004
vt 0.125000 0.119004
vt 0.125000 0.119004
vt 0.125000 0.119004
vt 0.125000 0.119004
vt 0.125000 0.119004
vt 0.125000 0.119004
vt 0.125000 0.119004
vt 0.125000 0.119004
vt 0.125000 0.119004
vt 0.125000 0.119004
vt 0.125000 0.119004
vt 0.125000 0.119004
vt 0.125000 0.119004
vt 0.125000 0.119004
vt 0.125000 0.119004
vt 0.125000 0.119004
vt 0.125000 0.119004
vt 0.125000 0.119004
vt 0.125000 0.119004
vt 0.125000 0.119004
vt 0.125000 0.119004
vt 0.125000 0.119004
vt 0.125000 0.119004
vt 0.125000 0.119004
vt 0.125000 0.119004
vt 0.125000 0.119004
vt 0.125000 0.119004
vt 0.125000 0.119004
vt 0.125000 0.119004
vt 0.125000 0.119004
vt 0.125000 0.119004
vn 0.0954 -0.9946 0.0411
vn 0.4487 -0.8208 0.3535
vn -0.0360 -0.9199 0.3906
vn 0.6073 -0.6474 0.4605
vn 0.5426 -0.7561 0.3660
vn -0.5086 -0.8610 -0.0077
vn -0.1474 -0.8441 -0.5156
vn 0.3794 -0.8029 -0.4598
vn 0.8037 0.0383 0.5939
vn 0.9921 0.0803 0.0968
vn 0.9150 0.2433 0.3219
vn -0.2876 -0.1877 0.9392
vn -0.2447 -0.2266 0.9428
vn -0.0268 0.2551 0.9665
vn -0.9838 0.1791 0.0000
vn -0.8678 0.1583 0.4710
vn -0.8843 0.3315 0.3288
vn -0.3237 0.2927 -0.8997
vn -0.7620 0.2289 -0.6058
vn -0.4587 0.2852 -0.8416
vn 0.7862 0.1582 -0.5974
vn 0.2880 0.1747 -0.9416
vn 0.5325 0.2263 -0.8156
vn 0.5607 0.2868 0.7768
vn -0.5506 0.2785 0.7869
vn -0.8691 0.3038 -0.3904
vn 0.0645 0.2283 -0.9714
vn 0.9322 0.2629 -0.2486
vn 0.1576 0.3317 0.9301
vn 0.1468 0.2841 0.9475
vn 0.1794 0.2012 0.9630
vn -0.6989 0.3819 0.6047
vn -0.2783 0.3983 0.8740
vn -0.5431 0.3695 0.7540
vn -0.8355 0.2780 -0.4740
vn -0.7385 0.3340 -0.5857
vn -0.8310 0.2900 -0.4747
vn 0.1181 0.3593 -0.9257
vn 0.0629 0.4015 -0.9137
vn 0.0888 0.5728 -0.8149
vn 0.9179 0.3968 -0.0029
vn 0.9225 0.3855 -0.0195
vn 0.8566 0.4960 0.1423
vn 0.3153 0.8565 -0.4087
vn 0.3555 0.8403 -0.4093
vn 0.3215 0.8684 -0.3775
vn 0.3871 0.8078 -0.4445
vn 0.0689 0.4093 -0.9098
vn 0.3601 0.8592 -0.3636
vn 0.1373 0.5726 -0.8082
vn -0.9332 0.2143 -0.2883
vn -0.7339 0.6790 0.0201
vn -0.7065 0.7074 0.0212
vn -0.6653 0.7463 0.0228
vn -0.7593 0.6505 0.0189
vn -0.7288 0.3512 0.5878
vn -0.3902 0.4189 0.8200
vn -0.3494 0.5081 0.7873
vn 0.6893 0.6499 0.3202
vn 0.7185 0.6103 0.3338
vn 0.8569 0.5024 0.1153
vn 0.7691 0.2094 -0.6039
vn -0.9372 0.1578 -0.3109
vn -0.9414 0.3373 0.0000
vn 0.7871 0.3203 0.5272
vn -0.3406 -0.2150 0.9153
vn 0.5844 0.1217 0.8023
vn 0.2119 -0.7277 -0.6523
vn 0.5972 -0.6746 -0.4339
vn -0.2281 -0.6746 -0.7020
vn -0.5649 -0.7050 -0.4288
vn -0.7679 -0.6406 0.0017
vn -0.6235 -0.7159 0.3143
vn -0.2773 -0.4377 0.8553
vn 0.7002 -0.6617 -0.2680
vn 0.4781 -0.8563 0.1952
vn 0.5139 -0.7538 0.4095
s 1
f 13/13/9 26/14/10 25/15/11
f 14/16/12 26/14/10 28/17/13
f 13/13/9 25/15/11 30/18/14
f 13/13/9 30/18/14 32/19/15
f 13/13/9 32/19/15 29/20/16
f 14/16/17 28/17/18 35/21/19
f 15/22/20 27/23/21 37/24/22
f 16/25/23 31/26/24 39/27/25
f 17/28/26 33/29/27 41/30/28
f 18/31/29 34/32/30 43/33/31
f 14/16/17 35/21/19 38/34/32
f 15/22/20 37/24/22 40/35/33
f 16/25/23 39/27/25 42/36/34
f 17/28/26 41/30/28 44/37/35
f 18/31/29 43/33/31 36/38/36
f 19/39/37 45/40/38 50/41/39
f 20/42/40 46/43/41 52/44/42
f 21/45/43 47/46/44 53/47/45
f 22/48/46 48/49/47 54/50/48
f 23/51/49 49/52/50 51/53/51
f 51/53/52 54/50/53 24/54/54
f 51/53/52 49/52/55 54/50/53
f 49/52/56 22/48/46 54/50/48
f 54/50/53 53/47/57 24/54/54
f 54/50/48 48/49/47 53/47/58
f 48/49/59 21/45/43 53/47/45
f 53/47/60 52/44/61 24/54/62
f 53/47/60 47/46/63 52/44/61
f 47/46/64 20/42/40 52/44/42
f 52/44/42 50/41/65 24/54/66
f 52/44/42 46/43/41 50/41/65
f 46/43/41 19/39/37 50/41/39
f 50/41/67 51/53/51 24/54/68
f 50/41/67 45/40/69 51/53/51
f 45/40/69 23/51/49 51/53/51
f 36/38/36 49/52/50 23/51/49
f 36/38/36 43/33/31 49/52/70
f 43/33/31 22/48/46 49/52/56
f 44/37/35 48/49/47 22/48/46
f 44/37/35 41/30/28 48/49/47
f 41/30/71 21/45/43 48/49/59
f 42/36/34 47/46/44 21/45/43
f 42/36/34 39/27/25 47/46/72
f 39/27/25 20/42/40 47/46/64
f 40/35/33 46/43/41 20/42/40
f 40/35/33 37/24/22 46/43/41
f 37/24/22 19/39/37 46/43/41
f 38/34/32 45/40/38 19/39/37
f 38/34/32 35/21/19 45/40/73
f 35/21/19 23/51/49 45/40/69
f 43/33/31 44/37/35 22/48/46
f 43/33/31 34/32/30 44/37/35
f 34/32/30 17/28/26 44/37/35
f 41/30/28 42/36/34 21/45/43
f 41/30/28 33/29/27 42/36/34
f 33/29/27 16/25/23 42/36/34
f 39/27/25 40/35/33 20/42/40
f 39/27/25 31/26/24 40/35/33
f 31/26/74 15/22/20 40/35/33
f 37/24/22 38/34/32 19/39/37
f 37/24/22 27/23/75 38/34/32
f 27/23/75 14/16/17 38/34/32
f 35/21/19 36/38/36 23/51/49
f 35/21/19 28/17/18 36/38/36
f 28/17/18 18/31/29 36/38/36
f 29/20/16 34/32/76 18/31/77
f 29/20/16 32/19/15 34/32/76
f 32/19/15 17/28/78 34/32/76
f 32/19/15 33/29/79 17/28/78
f 32/19/15 30/18/14 33/29/79
f 30/18/14 16/25/80 33/29/79
f 30/18/14 31/26/81 16/25/80
f 30/18/14 25/15/11 31/26/81
f 25/15/82 15/22/20 31/26/74
f 28/17/83 29/20/16 18/31/77
f 28/17/13 26/14/10 29/20/84
f 26/14/10 13/13/9 29/20/84
f 25/15/82 27/23/21 15/22/20
f 25/15/11 26/14/10 27/23/85
f 26/14/10 14/16/12 27/23/85
