# Blender v2.80 (sub 75) OBJ File: 'Autumn.blend'
# www.blender.org
o Cylinder_Cylinder.018
v -0.001339 0.000000 -0.253269
v 0.000000 0.623789 -0.204410
v 0.148064 0.000000 -0.204725
v 0.120149 0.515223 -0.165371
v 0.240400 0.000000 -0.077635
v 0.194405 0.473654 -0.063166
v 0.240400 0.000000 0.079456
v 0.197680 0.479633 0.057674
v 0.148064 0.000000 0.206546
v 0.123423 0.483151 0.159878
v -0.001339 0.000000 0.255090
v 0.000000 0.367865 0.204410
v -0.150742 0.000000 0.206546
v -0.120149 0.410712 0.165371
v -0.243078 0.000000 0.079456
v -0.194405 0.471542 0.063166
v -0.243078 0.000000 -0.077635
v -0.194405 0.471542 -0.063166
v -0.150742 0.000000 -0.204725
v -0.120149 0.576279 -0.165371
v 0.080919 0.515223 -0.111375
v 0.000000 0.623789 -0.137667
v 0.130929 0.473654 -0.042541
v 0.134203 0.479633 0.037049
v 0.084193 0.483151 0.105882
v 0.000000 0.367865 0.137667
v -0.080918 0.410712 0.111375
v -0.130929 0.471542 0.042541
v -0.130929 0.471542 -0.042541
v -0.080918 0.576279 -0.111375
v -0.054655 0.000000 -0.235945
v -0.042877 0.576279 -0.190478
v -0.028877 0.576279 -0.128284
v 0.080481 0.000000 -0.226684
v 0.065799 0.623789 -0.183030
v 0.044315 0.623789 -0.123268
v 0.190633 0.000000 -0.146133
v 0.154383 0.515223 -0.118252
v 0.103975 0.515223 -0.079641
v 0.044315 0.481251 -0.121221
v 0.000000 0.483922 -0.135370
v 0.103975 0.473160 -0.078351
v 0.080919 0.479045 -0.109534
v 0.130929 0.450500 0.041712
v 0.130929 0.466280 -0.041895
v 0.080918 0.437734 0.109351
v 0.000000 0.432858 0.135187
v -0.080918 0.437734 0.109351
v -0.130929 0.450500 0.041712
v -0.130929 0.466280 -0.041895
v -0.080918 0.479045 -0.109534
v -0.028877 0.482181 -0.126150
v 0.061995 0.000000 0.234511
v 0.050933 0.477173 0.187861
v 0.034302 0.477173 0.126521
v 0.034302 0.434925 0.124235
v -0.070304 0.000000 0.232682
v -0.055461 0.367865 0.186389
v -0.037352 0.367865 0.125530
v -0.037352 0.435109 0.123261
v 0.031888 0.473813 -0.081809
v 0.002637 0.475575 -0.091149
v 0.071269 0.468472 -0.053511
v 0.056050 0.472357 -0.074095
v 0.089061 0.453515 0.025740
v 0.089061 0.463930 -0.029447
v 0.056050 0.445088 0.070387
v 0.025279 0.443234 0.080212
v -0.022019 0.443355 0.079569
v 0.002637 0.441869 0.087441
v -0.083787 0.453515 0.025740
v -0.050776 0.445088 0.070387
v -0.083787 0.463930 -0.029447
v -0.050776 0.472357 -0.074095
v -0.016424 0.474427 -0.085063
v 0.025024 0.469704 -0.060039
v 0.004093 0.470965 -0.066722
v 0.053203 0.465882 -0.039791
v 0.042313 0.468662 -0.054519
v 0.065934 0.455180 0.016917
v 0.065934 0.462633 -0.022572
v 0.042313 0.449150 0.048865
v 0.020295 0.447823 0.055895
v -0.013549 0.447910 0.055435
v 0.004093 0.446847 0.061068
v -0.057747 0.455180 0.016917
v -0.034126 0.449150 0.048865
v -0.057747 0.462633 -0.022572
v -0.034126 0.468662 -0.054519
v -0.009546 0.470143 -0.062368
v 0.014192 0.463220 -0.025683
v 0.006392 0.463690 -0.028174
v 0.024693 0.461796 -0.018138
v 0.020635 0.462832 -0.023626
v 0.029437 0.457807 0.002994
v 0.029437 0.460585 -0.011721
v 0.020634 0.455561 0.014899
v 0.012430 0.455066 0.017519
v -0.000182 0.455098 0.017348
v 0.006392 0.454702 0.019447
v -0.016652 0.457807 0.002994
v -0.007850 0.455561 0.014899
v -0.016652 0.460585 -0.011721
v -0.007850 0.462832 -0.023626
v 0.001310 0.463384 -0.026551
vt 0.117188 0.125000
vt 0.117188 0.125000
vt 0.117188 0.125000
vt 0.117188 0.125000
vt 0.117188 0.125000
vt 0.117188 0.125000
vt 0.117188 0.125000
vt 0.117188 0.125000
vt 0.117188 0.125000
vt 0.117188 0.125000
vt 0.117188 0.125000
vt 0.117188 0.125000
vt 0.117188 0.125000
vt 0.117188 0.125000
vt 0.117188 0.125000
vt 0.117188 0.125000
vt 0.117188 0.125000
vt 0.117188 0.125000
vt 0.117188 0.125000
vt 0.117188 0.125000
vt 0.117188 0.125000
vt 0.117188 0.125000
vt 0.117188 0.125000
vt 0.117188 0.125000
vt 0.363281 0.125000
vt 0.363281 0.125000
vt 0.363281 0.125000
vt 0.363281 0.125000
vt 0.117188 0.125000
vt 0.117188 0.125000
vt 0.117188 0.125000
vt 0.117188 0.125000
vt 0.117188 0.125000
vt 0.117188 0.125000
vt 0.875000 0.121094
vt 0.875000 0.121094
vt 0.875000 0.121094
vt 0.875000 0.121094
vt 0.363281 0.125000
vt 0.363281 0.125000
vt 0.363281 0.125000
vt 0.363281 0.125000
vt 0.363281 0.125000
vt 0.363281 0.125000
vt 0.363281 0.125000
vt 0.363281 0.125000
vt 0.363281 0.125000
vt 0.363281 0.125000
vt 0.363281 0.125000
vt 0.363281 0.125000
vt 0.363281 0.125000
vt 0.363281 0.125000
vt 0.363281 0.125000
vt 0.363281 0.125000
vt 0.363281 0.125000
vt 0.363281 0.125000
vt 0.363281 0.125000
vt 0.363281 0.125000
vt 0.363281 0.125000
vt 0.363281 0.125000
vt 0.363281 0.125000
vt 0.363281 0.125000
vt 0.363281 0.125000
vt 0.363281 0.125000
vt 0.125000 0.368281
vt 0.125000 0.368281
vt 0.125000 0.368281
vt 0.125000 0.368281
vt 0.875000 0.121094
vt 0.875000 0.121094
vt 0.875000 0.121094
vt 0.875000 0.121094
vt 0.875000 0.121094
vt 0.875000 0.121094
vt 0.875000 0.121094
vt 0.875000 0.121094
vt 0.875000 0.121094
vt 0.875000 0.121094
vt 0.872015 0.125000
vt 0.872015 0.125000
vt 0.872015 0.125000
vt 0.872015 0.125000
vt 0.875000 0.121094
vt 0.875000 0.121094
vt 0.872015 0.125000
vt 0.872015 0.125000
vt 0.872015 0.125000
vt 0.872015 0.125000
vt 0.876382 0.121094
vt 0.876382 0.121094
vt 0.876382 0.121094
vt 0.876382 0.121094
vt 0.876382 0.121094
vt 0.876382 0.121094
vt 0.876382 0.121094
vt 0.876382 0.121094
vt 0.872015 0.125000
vt 0.872015 0.125000
vt 0.872015 0.125000
vt 0.872015 0.125000
vt 0.876382 0.121094
vt 0.876382 0.121094
vt 0.363281 0.367188
vt 0.363281 0.367188
vt 0.363281 0.367188
vt 0.363281 0.367188
vt 0.125000 0.368281
vt 0.125000 0.368281
vt 0.125000 0.368281
vt 0.125000 0.368281
vt 0.125000 0.368281
vt 0.125000 0.368281
vt 0.125000 0.368281
vt 0.125000 0.368281
vt 0.125000 0.368281
vt 0.125000 0.368281
vt 0.125000 0.368281
vt 0.125000 0.368281
vt 0.125000 0.368281
vt 0.125000 0.368281
vt 0.125000 0.368281
vt 0.125000 0.368281
vt 0.125000 0.368281
vt 0.125000 0.368281
vt 0.125000 0.368281
vt 0.125000 0.368281
vt 0.125000 0.368281
vt 0.125000 0.368281
vt 0.125000 0.368281
vt 0.125000 0.368281
vt 0.125000 0.368281
vt 0.125000 0.368281
vt 0.132813 0.371094
vt 0.132813 0.371094
vt 0.132813 0.371094
vt 0.132813 0.371094
vt 0.363281 0.367188
vt 0.363281 0.367188
vt 0.363281 0.367188
vt 0.363281 0.367188
vt 0.363281 0.367188
vt 0.363281 0.367188
vt 0.363281 0.367188
vt 0.363281 0.367188
vt 0.363281 0.367188
vt 0.363281 0.367188
vt 0.363281 0.367188
vt 0.363281 0.367188
vt 0.363281 0.367188
vt 0.363281 0.367188
vt 0.363281 0.367188
vt 0.363281 0.367188
vt 0.363281 0.367188
vt 0.363281 0.367188
vt 0.363281 0.367188
vt 0.363281 0.367188
vt 0.363281 0.367188
vt 0.363281 0.367188
vt 0.363281 0.367188
vt 0.363281 0.367188
vt 0.363281 0.367188
vt 0.363281 0.367188
vt 0.363281 0.364375
vt 0.363281 0.364375
vt 0.363281 0.364375
vt 0.363281 0.364375
vt 0.363281 0.364375
vt 0.363281 0.364375
vt 0.363281 0.364375
vt 0.363281 0.364375
vt 0.363281 0.364375
vt 0.363281 0.364375
vt 0.363281 0.364375
vt 0.363281 0.364375
vt 0.363281 0.364375
vt 0.363281 0.364375
vt 0.363281 0.364375
vt 0.132813 0.371094
vt 0.132813 0.371094
vt 0.132813 0.371094
vt 0.132813 0.371094
vt 0.132813 0.371094
vt 0.132813 0.371094
vt 0.132813 0.371094
vt 0.132813 0.371094
vt 0.132813 0.371094
vt 0.132813 0.371094
vt 0.132813 0.371094
vt 0.132813 0.371094
vt 0.132813 0.371094
vt 0.132813 0.371094
vt 0.132813 0.371094
vt 0.132813 0.371094
vt 0.132813 0.371094
vt 0.132813 0.371094
vt 0.132813 0.371094
vt 0.132813 0.371094
vt 0.132813 0.371094
vt 0.132813 0.371094
vt 0.132813 0.371094
vt 0.132813 0.371094
vt 0.132813 0.371094
vt 0.132813 0.371094
vn 0.3727 0.0813 -0.9244
vn 0.8201 0.0924 -0.5647
vn 0.9956 0.0925 -0.0137
vn 0.8058 0.0979 0.5840
vn 0.2064 0.1143 0.9718
vn -0.2736 0.1231 0.9539
vn -0.7899 0.1103 0.6032
vn -0.9947 0.1027 0.0000
vn 0.0000 1.0000 0.0000
vn -0.8250 0.0911 -0.5578
vn -0.3424 0.0773 -0.9364
vn 0.2925 0.0181 0.9561
vn -0.4137 0.7104 0.5694
vn 0.2932 0.8667 0.4035
vn -0.0816 0.9959 0.0395
vn 0.0196 0.9994 -0.0269
vn 0.0000 0.9982 -0.0596
vn -0.3080 0.0811 -0.9479
vn -0.7850 0.6137 0.0852
vn 0.8094 0.3978 0.4320
vn 0.3082 0.0736 -0.9485
vn 0.2740 0.8047 0.5267
vn 0.8059 0.0884 -0.5855
vn 0.0000 0.9827 0.1855
vn -0.3062 0.0146 0.9519
vn 0.8005 0.0145 0.5992
vn -0.8053 0.0237 0.5924
vn 0.3060 0.0198 0.9518
vn -0.9953 0.0930 0.0256
vn -0.7989 0.0235 0.6010
vn -0.8068 0.0064 -0.5908
vn -0.3454 0.0002 -0.9384
vn -0.2777 0.0209 0.9604
vn -0.3055 0.0342 0.9516
vn -0.6749 0.3177 0.6660
vn 1.0000 0.0000 0.0000
vn -0.0177 0.2051 0.9786
vn -0.9198 0.3738 0.1194
vn 0.3275 0.1034 0.9392
vn -0.2856 0.0436 0.9574
vn 0.5419 0.7957 0.2706
vn -0.3064 0.1310 0.9429
s off
f 34/1/1 35/2/1 4/3/1 3/4/1
f 37/5/2 38/6/2 6/7/2 5/8/2
f 5/8/3 6/7/3 8/9/3 7/10/3
f 7/10/4 8/9/4 10/11/4 9/12/4
f 53/13/5 54/14/5 12/15/5 11/16/5
f 57/17/6 58/18/6 14/19/6 13/20/6
f 13/20/7 14/19/7 16/21/7 15/22/7
f 15/22/8 16/21/8 18/23/8 17/24/8
f 32/25/9 20/26/9 30/27/9 33/28/9
f 17/24/10 18/23/10 20/29/10 19/30/10
f 31/31/11 32/32/11 2/33/11 1/34/11
f 22/35/12 33/36/12 52/37/12 41/38/12
f 20/26/13 18/39/13 29/40/13 30/27/13
f 18/39/9 16/41/9 28/42/9 29/40/9
f 16/41/14 14/43/14 27/44/14 28/42/14
f 58/45/9 12/46/9 26/47/9 59/48/9
f 54/49/15 10/50/15 25/51/15 55/52/15
f 10/50/16 8/53/16 24/54/16 25/51/16
f 35/55/9 2/56/9 22/57/9 36/58/9
f 8/53/17 6/59/17 23/60/17 24/54/17
f 38/61/9 4/62/9 21/63/9 39/64/9
f 19/30/18 20/29/18 32/32/18 31/31/18
f 2/56/19 32/25/19 33/28/19 22/57/19
f 4/62/20 35/55/20 36/58/20 21/63/20
f 1/34/21 2/33/21 35/2/21 34/1/21
f 6/59/22 38/61/22 39/64/22 23/60/22
f 3/4/23 4/3/23 38/6/23 37/5/23
f 49/65/24 48/66/24 72/67/24 71/68/24
f 36/69/25 22/35/25 41/38/25 40/70/25
f 30/71/26 29/72/26 50/73/26 51/74/26
f 39/75/27 21/76/27 43/77/27 42/78/27
f 33/36/28 30/71/28 51/74/28 52/37/28
f 24/79/29 23/80/29 45/81/29 44/82/29
f 23/83/30 39/75/30 42/78/30 45/84/30
f 25/85/31 24/79/31 44/82/31 46/86/31
f 55/87/32 25/85/32 46/86/32 56/88/32
f 21/76/33 36/69/33 40/70/33 43/77/33
f 59/89/34 26/90/34 47/91/34 60/92/34
f 28/93/35 27/94/35 48/95/35 49/96/35
f 29/97/36 28/98/36 49/99/36 50/100/36
f 26/90/37 55/101/37 56/102/37 47/91/37
f 12/46/38 54/49/38 55/52/38 26/47/38
f 9/12/39 10/11/39 54/14/39 53/13/39
f 27/94/40 59/89/40 60/92/40 48/95/40
f 14/43/41 58/45/41 59/48/41 27/44/41
f 11/16/42 12/15/42 58/18/42 57/17/42
f 67/103/24 65/104/24 80/105/24 82/106/24
f 48/66/24 60/107/24 69/108/24 72/67/24
f 47/109/24 56/110/24 68/111/24 70/112/24
f 50/113/24 49/65/24 71/68/24 73/114/24
f 40/115/24 41/116/24 62/117/24 61/118/24
f 51/119/24 50/113/24 73/114/24 74/120/24
f 42/121/24 43/122/24 64/123/24 63/124/24
f 52/125/24 51/119/24 74/120/24 75/126/24
f 44/127/24 45/128/24 66/129/24 65/130/24
f 41/116/24 52/125/24 75/126/24 62/117/24
f 46/131/24 44/127/24 65/130/24 67/132/24
f 43/122/24 40/115/24 61/118/24 64/123/24
f 56/110/24 46/131/24 67/132/24 68/111/24
f 45/128/24 42/121/24 63/124/24 66/129/24
f 60/107/24 47/109/24 70/112/24 69/108/24
f 89/133/24 88/134/24 103/135/24 104/136/24
f 64/137/24 61/138/24 76/139/24 79/140/24
f 68/141/24 67/103/24 82/106/24 83/142/24
f 66/143/24 63/144/24 78/145/24 81/146/24
f 69/147/24 70/148/24 85/149/24 84/150/24
f 70/148/24 68/141/24 83/142/24 85/149/24
f 71/151/24 72/152/24 87/153/24 86/154/24
f 72/152/24 69/147/24 84/150/24 87/153/24
f 73/155/24 71/151/24 86/154/24 88/156/24
f 61/138/24 62/157/24 77/158/24 76/139/24
f 74/159/24 73/155/24 88/156/24 89/160/24
f 63/144/24 64/137/24 79/140/24 78/145/24
f 75/161/24 74/159/24 89/160/24 90/162/24
f 65/104/24 66/143/24 81/146/24 80/105/24
f 62/157/24 75/161/24 90/162/24 77/158/24
f 94/163/24 91/164/24 92/165/24 105/166/24 104/167/24 103/168/24 101/169/24 102/170/24 99/171/24 100/172/24 98/173/24 97/174/24 95/175/24 96/176/24 93/177/24
f 78/178/24 79/179/24 94/180/24 93/181/24
f 90/182/24 89/133/24 104/136/24 105/183/24
f 80/184/24 81/185/24 96/186/24 95/187/24
f 77/188/24 90/182/24 105/183/24 92/189/24
f 82/190/24 80/184/24 95/187/24 97/191/24
f 79/179/24 76/192/24 91/193/24 94/180/24
f 83/194/24 82/190/24 97/191/24 98/195/24
f 81/185/24 78/178/24 93/181/24 96/186/24
f 84/196/24 85/197/24 100/198/24 99/199/24
f 85/197/24 83/194/24 98/195/24 100/198/24
f 86/200/24 87/201/24 102/202/24 101/203/24
f 87/201/24 84/196/24 99/199/24 102/202/24
f 88/134/24 86/200/24 101/203/24 103/135/24
f 76/192/24 77/188/24 92/189/24 91/193/24
