# Blender v2.76 (sub 0) OBJ File: 'Common.blend'
# www.blender.org
o Tree_Icosphere.001
v 0.326795 1.806959 -1.449101
v 0.493029 2.523251 -1.691726
v 0.605284 2.329773 -0.950419
v 0.033950 1.918821 -0.806561
v -0.439142 1.761309 -1.345037
v -0.152456 2.171924 -1.935611
v 0.298142 3.017852 -1.128717
v 0.011456 2.607238 -0.538143
v -0.634030 2.255911 -0.782028
v -0.746284 2.449389 -1.523335
v -0.151455 2.821486 -1.635538
v -0.467795 2.972203 -1.024653
v 0.378937 2.436070 0.428947
v 0.343249 2.830100 0.835094
v 0.002166 2.377367 0.848573
v -0.126552 2.327821 0.326264
v 0.103987 2.629628 -0.027590
v 0.406177 2.986005 0.293600
v -0.203457 2.891017 0.972565
v -0.505648 2.534641 0.651375
v -0.442720 2.690545 0.109881
v -0.101637 3.143278 0.096402
v 0.033254 3.188998 0.582795
v -0.478408 3.084575 0.516028
v -0.208500 0.002122 0.205915
v -0.168532 0.102881 0.156984
v -0.208500 0.002122 -0.216410
v -0.160811 0.139990 -0.175652
v 0.213826 0.002122 0.205915
v 0.166137 0.106503 0.165156
v 0.213826 0.002122 -0.216411
v 0.173858 0.143612 -0.167479
v -0.090270 0.808182 0.187150
v -0.128123 0.745147 -0.057253
v 0.095942 0.770074 -0.073202
v 0.133795 0.833109 0.171201
v -0.130171 1.595934 -0.029499
v -0.178547 1.566619 -0.240571
v 0.031827 1.538954 -0.252862
v 0.034721 1.582227 -0.046843
v -0.157501 1.718301 0.012294
v -0.155608 1.800963 -0.195427
v 0.070034 1.773210 -0.173905
v 0.047980 1.714230 -0.022289
v -0.031251 1.828349 -0.833518
v 0.093928 1.811524 -0.803939
v -0.033358 1.943559 -0.759657
v 0.091821 1.926734 -0.730078
v -0.225039 2.124794 0.375034
v -0.198184 2.215798 0.235275
v -0.076358 2.192805 0.272732
v -0.099457 2.107939 0.383550
v -0.103067 2.718830 0.518573
v -0.082206 2.785368 0.414609
v 0.000014 2.794108 0.459556
v -0.014969 2.738338 0.545310
v -0.079668 2.131792 -1.114985
v 0.009914 2.152500 -1.120928
v -0.084551 2.177132 -1.029132
v 0.005031 2.197840 -1.035076
vt 0.625000 0.125000
vt 0.375000 0.125000
vt 0.125000 0.125000
vn 0.932200 -0.289800 -0.216800
vn 0.500600 -0.379700 -0.778000
vn 0.599900 -0.696000 0.394600
vn 0.086400 -0.974100 0.209000
vn -0.030400 -0.813700 -0.580500
vn 0.114100 0.416500 -0.902000
vn 0.915900 0.399900 -0.034300
vn 0.438000 -0.314100 0.842300
vn -0.363000 -0.758700 0.540900
vn -0.641600 -0.447800 -0.622800
vn 0.304700 0.765400 -0.566900
vn 0.641600 0.447800 0.622800
vn -0.149600 -0.363400 0.919500
vn -0.915900 -0.399900 0.034300
vn -0.398000 0.385200 -0.832600
vn -0.095500 0.953800 -0.284800
vn 0.030400 0.813700 0.580500
vn -0.500600 0.379700 0.778000
vn -0.932200 0.289800 0.216800
vn -0.532700 0.715200 -0.452300
vn 0.679500 -0.495800 0.540800
vn 0.993800 -0.022400 0.109000
vn 0.200800 -0.978700 0.043400
vn 0.278100 -0.812700 -0.512000
vn 0.807700 -0.178300 -0.562000
vn 0.618500 0.733100 0.282900
vn 0.226500 -0.141900 0.963600
vn -0.352400 -0.919500 0.174100
vn -0.252800 -0.648600 -0.717900
vn 0.433800 0.371800 -0.820700
vn 0.247700 0.691200 0.678900
vn -0.433800 -0.371800 0.820700
vn -0.634100 -0.720400 -0.281100
vn -0.226500 0.141900 -0.963600
vn 0.355500 0.916200 -0.184700
vn -0.235300 0.835800 0.496100
vn -0.807700 0.178300 0.562000
vn -0.993800 0.022400 -0.109000
vn -0.679500 0.495800 -0.540800
vn -0.195100 0.980100 -0.038000
vn -0.938600 0.345000 0.007400
vn 0.008800 0.305500 -0.952200
vn 0.941900 0.334900 0.026100
vn -0.011800 0.400200 0.916400
vn 0.000000 -1.000000 -0.000000
vn -0.995700 0.078800 0.048500
vn -0.982200 -0.008500 0.187700
vn 0.015200 -0.025800 0.999600
vn -0.022400 0.169300 -0.985300
vn 0.994800 0.085200 -0.055800
vn 0.123100 -0.244100 0.961900
vn 0.074000 0.277600 0.957800
vn -0.064600 -0.226500 -0.971900
vn 0.991100 0.078200 -0.108100
vn 0.967400 0.111200 0.227400
vn -0.975300 0.121100 -0.184900
vn 0.987300 -0.151800 0.046200
vn -0.993700 -0.037900 0.105500
vn 0.980900 0.157000 -0.114900
vn -0.096200 -0.895000 -0.435600
vn 0.992800 -0.115900 0.030600
vn 0.083500 0.960700 0.264700
vn 0.378500 0.219100 -0.899300
vn -0.994300 -0.036300 -0.100400
vn 0.013300 -0.690800 0.722900
vn 0.216600 0.730300 -0.647900
vn -0.332100 0.820100 0.466000
vn 0.985000 -0.151900 0.082200
vn -0.975400 0.214100 -0.052600
vn -0.156400 -0.214000 0.964200
vn -0.228600 0.855400 -0.464800
vn -0.087000 0.738000 0.669200
vn -0.991200 -0.112400 0.069600
vn 0.093400 -0.667100 -0.739100
s off
f 1/1/1 2/1/1 3/1/1
f 2/1/2 1/1/2 6/1/2
f 1/1/3 3/1/3 4/1/3
f 1/1/4 4/1/4 5/1/4
f 1/1/5 5/1/5 6/1/5
f 2/1/6 6/1/6 11/1/6
f 3/1/7 2/1/7 7/1/7
f 4/1/8 3/1/8 8/1/8
f 5/1/9 4/1/9 9/1/9
f 6/1/10 5/1/10 10/1/10
f 2/1/11 11/1/11 7/1/11
f 3/1/12 7/1/12 8/1/12
f 4/1/13 8/1/13 9/1/13
f 5/1/14 9/1/14 10/1/14
f 6/1/15 10/1/15 11/1/15
f 7/1/16 11/1/16 12/1/16
f 8/1/17 7/1/17 12/1/17
f 9/1/18 8/1/18 12/1/18
f 10/1/19 9/1/19 12/1/19
f 11/1/20 10/1/20 12/1/20
f 13/2/21 14/2/21 15/2/21
f 14/2/22 13/2/22 18/2/22
f 13/2/23 15/2/23 16/2/23
f 13/2/24 16/2/24 17/2/24
f 13/2/25 17/2/25 18/2/25
f 14/2/26 18/2/26 23/2/26
f 15/2/27 14/2/27 19/2/27
f 16/2/28 15/2/28 20/2/28
f 17/2/29 16/2/29 21/2/29
f 18/2/30 17/2/30 22/2/30
f 14/2/31 23/2/31 19/2/31
f 15/2/32 19/2/32 20/2/32
f 16/2/33 20/2/33 21/2/33
f 17/2/34 21/2/34 22/2/34
f 18/2/35 22/2/35 23/2/35
f 19/2/36 23/2/36 24/2/36
f 20/2/37 19/2/37 24/2/37
f 21/2/38 20/2/38 24/2/38
f 22/2/39 21/2/39 24/2/39
f 23/2/40 22/2/40 24/2/40
f 26/3/41 28/3/41 27/3/41 25/3/41
f 28/3/42 32/3/42 31/3/42 27/3/42
f 32/3/43 30/3/43 29/3/43 31/3/43
f 30/3/44 26/3/44 25/3/44 29/3/44
f 25/3/45 27/3/45 31/3/45 29/3/45
f 28/3/46 26/3/46 33/3/46 34/3/46
f 34/3/47 33/3/47 37/3/47 38/3/47
f 26/3/48 30/3/48 36/3/48 33/3/48
f 32/3/49 28/3/49 34/3/49 35/3/49
f 30/3/50 32/3/50 35/3/50 36/3/50
f 37/3/51 40/3/51 44/3/51 41/3/51
f 33/3/52 36/3/52 40/3/52 37/3/52
f 35/3/53 34/3/53 38/3/53 39/3/53
f 36/3/54 35/3/54 39/3/54 40/3/54
f 44/3/55 43/3/55 51/3/55 52/3/55
f 38/3/56 42/3/56 47/3/56 45/3/56
f 40/3/57 39/3/57 43/3/57 44/3/57
f 38/3/58 37/3/58 41/3/58 42/3/58
f 48/3/59 46/3/59 58/3/59 60/3/59
f 39/3/60 38/3/60 45/3/60 46/3/60
f 43/3/61 39/3/61 46/3/61 48/3/61
f 42/3/62 43/3/62 48/3/62 47/3/62
f 51/3/63 50/3/63 54/3/63 55/3/63
f 42/3/64 41/3/64 49/3/64 50/3/64
f 41/3/65 44/3/65 52/3/65 49/3/65
f 43/3/66 42/3/66 50/3/66 51/3/66
f 56/3/67 55/3/67 54/3/67 53/3/67
f 52/3/68 51/3/68 55/3/68 56/3/68
f 50/3/69 49/3/69 53/3/69 54/3/69
f 49/3/70 52/3/70 56/3/70 53/3/70
f 58/3/71 57/3/71 59/3/71 60/3/71
f 47/3/72 48/3/72 60/3/72 59/3/72
f 45/3/73 47/3/73 59/3/73 57/3/73
f 46/3/74 45/3/74 57/3/74 58/3/74
