# Blender v2.80 (sub 75) OBJ File: 'Autumn.blend'
# www.blender.org
o Cylinder.008_Cylinder.015
v 0.034588 0.000000 -0.309926
v 0.337164 0.000000 -0.090091
v 0.221590 0.000000 0.265608
v -0.152414 0.000000 0.265608
v -0.267988 0.000000 -0.090091
v -0.139723 1.630024 -0.128603
v 0.047282 1.692719 -0.041181
v -0.073796 1.712914 0.091097
v -0.161006 1.591641 0.111311
v -0.201751 1.540413 -0.024471
v -0.518041 1.781373 -0.032822
v -0.491648 1.837249 -0.001355
v -0.451131 1.849655 0.096711
v -0.522825 1.748018 0.106618
v -0.539290 1.725996 0.020040
v 0.567998 2.289497 -0.127125
v 0.611778 2.266394 -0.101924
v -0.029582 1.533897 -0.054984
v 0.404663 2.004392 -0.135685
v -0.040888 1.463195 -0.029247
v 0.459828 1.952770 -0.086752
v -0.032366 1.516176 0.069476
v 0.446429 1.972274 0.000096
v -0.076037 1.709268 0.088804
v 0.291103 1.941700 0.012173
v -0.097551 1.625459 -0.027332
v 0.357170 2.055800 -0.079079
v 0.605982 2.273849 -0.047185
v 0.558619 2.301559 -0.038556
v 0.535144 2.311230 -0.087961
v -0.637921 2.001508 0.004556
v -0.612770 2.020259 0.020632
v -0.585012 2.014850 0.074842
v -0.644100 1.990820 0.073356
v -0.657352 1.985785 0.029411
v 0.303842 0.871330 -0.106368
v 0.231808 0.862222 0.114379
v -0.026455 0.827490 0.090147
v -0.070340 0.834409 -0.107679
v 0.117104 0.854140 -0.243607
v 0.305221 0.148284 -0.084721
v 0.206471 0.165281 0.214660
v -0.104134 0.220777 0.211788
v -0.197349 0.238079 -0.089368
v 0.055646 0.193276 -0.272621
v 0.064991 -0.018310 0.271840
v -0.090865 1.643087 0.109317
v -0.472575 1.780253 0.118356
v -0.615791 1.994938 0.080265
v 0.140145 0.833532 0.120242
v 0.078712 0.172216 0.219585
vt 0.878906 0.117188
vt 0.878906 0.117188
vt 0.878906 0.117188
vt 0.878906 0.117188
vt 0.878906 0.117188
vt 0.878906 0.117188
vt 0.878906 0.117188
vt 0.878906 0.117188
vt 0.878906 0.117188
vt 0.878906 0.117188
vt 0.878906 0.117188
vt 0.878906 0.117188
vt 0.878906 0.117188
vt 0.878906 0.117188
vt 0.878906 0.117188
vt 0.878906 0.117188
vt 0.878906 0.117188
vt 0.878906 0.117188
vt 0.878906 0.117188
vt 0.878906 0.117188
vt 0.878906 0.117188
vt 0.878906 0.117188
vt 0.878906 0.117188
vt 0.878906 0.117188
vt 0.878906 0.117188
vt 0.878906 0.117188
vt 0.878906 0.117188
vt 0.878906 0.117188
vt 0.878906 0.117188
vt 0.878906 0.117188
vt 0.878906 0.117188
vt 0.878906 0.117188
vt 0.878906 0.117188
vt 0.878906 0.117188
vt 0.878906 0.117188
vt 0.878906 0.117188
vt 0.878906 0.117188
vt 0.878906 0.117188
vt 0.878906 0.117188
vt 0.878906 0.117188
vt 0.878906 0.117188
vt 0.878906 0.117188
vt 0.878906 0.117188
vt 0.878906 0.117188
vt 0.878906 0.117188
vt 0.878906 0.117188
vt 0.878906 0.117188
vt 0.878906 0.117188
vt 0.878906 0.117188
vt 0.878906 0.117188
vt 0.878906 0.117188
vn -0.9454 -0.1898 0.2650
vn -0.1101 -0.0320 0.9934
vn 0.8475 0.2735 0.4550
vn 0.4607 0.2443 -0.8533
vn 0.2918 0.9559 -0.0332
vn -0.3894 -0.8404 0.3770
vn 0.0863 0.6237 -0.7769
vn 0.1074 0.2461 0.9633
vn -0.4038 -0.5553 -0.7270
vn 0.1001 0.0823 0.9916
vn 0.3005 -0.4162 -0.8582
vn 0.4537 -0.2484 -0.8559
vn 0.6852 -0.6721 0.2805
vn 0.8821 -0.4262 0.2007
vn 0.1630 0.0089 0.9866
vn -0.7646 0.5807 0.2794
vn -0.6297 0.7766 -0.0218
vn -0.5642 0.3558 -0.7451
vn 0.7519 0.5508 -0.3624
vn -0.8714 -0.4016 0.2817
vn 0.3354 0.3304 -0.8822
vn 0.1069 0.2306 0.9672
vn -0.7122 -0.2909 -0.6389
vn 0.5965 -0.0216 -0.8023
vn 0.9501 0.0107 0.3118
vn -0.0844 0.1800 0.9800
vn -0.9439 0.1919 0.2687
vn -0.5807 0.0939 -0.8087
vn -0.6733 -0.0781 -0.7352
vn -0.5663 0.1911 -0.8018
vn -0.9151 0.2716 0.2980
vn 0.0076 0.2486 0.9686
vn 0.9356 0.1842 0.3013
vn 0.5961 0.1182 -0.7942
vn 0.0265 0.2786 0.9601
vn 0.0344 0.1432 0.9891
vn -0.2372 0.0144 0.9714
vn -0.0255 -0.0793 0.9965
vn 0.1546 0.0703 0.9855
vn -0.3693 0.2321 -0.8999
s off
f 9/1/1 10/2/1 39/3/1 38/4/1
f 47/5/2 9/1/2 38/4/2 50/6/2
f 7/7/3 8/8/3 37/9/3 36/10/3
f 40/11/4 6/12/4 7/7/4 36/10/4
f 8/8/5 7/7/5 12/13/5 13/14/5
f 10/2/6 9/1/6 14/15/6 15/16/6
f 7/7/7 6/12/7 11/17/7 12/13/7
f 47/5/8 8/8/8 13/14/8 48/18/8
f 6/12/9 10/2/9 15/16/9 11/17/9
f 25/19/10 23/20/10 28/21/10 29/22/10
f 18/23/11 19/24/11 21/25/11 20/26/11
f 21/25/12 19/24/12 16/27/12 17/28/12
f 20/26/13 21/25/13 23/20/13 22/29/13
f 23/20/14 21/25/14 17/28/14 28/21/14
f 22/29/15 23/20/15 25/19/15 24/30/15
f 27/31/16 25/19/16 29/22/16 30/32/16
f 24/30/17 25/19/17 27/31/17 26/33/17
f 19/24/18 27/31/18 30/32/18 16/27/18
f 13/14/19 12/13/19 32/34/19 33/35/19
f 15/16/20 14/15/20 34/36/20 35/37/20
f 12/13/21 11/17/21 31/38/21 32/34/21
f 48/18/22 13/14/22 33/35/22 49/39/22
f 11/17/23 15/16/23 35/37/23 31/38/23
f 45/40/24 40/11/24 36/10/24 41/41/24
f 41/41/25 36/10/25 37/9/25 42/42/25
f 51/43/26 50/6/26 38/4/26 43/44/26
f 43/44/27 38/4/27 39/3/27 44/45/27
f 44/45/28 39/3/28 40/11/28 45/40/28
f 10/2/29 6/12/29 40/11/29 39/3/29
f 5/46/30 44/45/30 45/40/30 1/47/30
f 4/48/31 43/44/31 44/45/31 5/46/31
f 46/49/32 51/43/32 43/44/32 4/48/32
f 2/50/33 41/41/33 42/42/33 3/51/33
f 1/47/34 45/40/34 41/41/34 2/50/34
f 3/51/35 42/42/35 51/43/35 46/49/35
f 42/42/36 37/9/36 50/6/36 51/43/36
f 14/15/37 48/18/37 49/39/37 34/36/37
f 9/1/38 47/5/38 48/18/38 14/15/38
f 8/8/39 47/5/39 50/6/39 37/9/39
f 26/33/40 27/31/40 19/24/40 18/23/40
o Icosphere.006_Icosphere.013
v 1.072038 2.714396 -0.047216
v 0.714161 2.703208 -0.544082
v 0.433982 2.958144 -0.246011
v 0.606266 2.737959 0.267853
v 0.996528 2.328151 0.046079
v 1.071774 2.397819 -0.434961
v 0.187628 2.736285 -0.462847
v 0.116689 2.625814 -0.035529
v 0.440991 2.282238 0.138881
v 0.716672 2.139558 -0.234365
v 0.529542 2.397035 -0.562906
v 0.206066 2.440478 -0.178757
v 0.751367 2.928394 -0.035335
v 0.863800 2.850096 -0.378597
v 0.603586 2.860858 -0.406360
v 0.915309 2.513740 -0.529868
v 1.105257 2.535193 -0.292247
v 0.858826 2.801038 0.189353
v 0.534324 2.900281 0.149409
v 1.012583 2.556556 0.018547
v 0.884924 2.527434 0.181880
v 1.089187 2.307673 -0.166319
v 0.604670 2.499383 -0.624966
v 0.828600 2.335622 -0.587739
v 0.269143 2.819487 -0.368476
v 0.403698 2.698791 -0.566153
v 0.327901 2.757197 0.203574
v 0.210230 2.861454 0.025964
v 0.738003 2.262181 0.132603
v 0.497243 2.606350 0.297245
v 0.936064 2.208263 -0.363050
v 0.872558 2.141485 -0.065074
v 0.358461 2.652748 -0.500452
v 0.202122 2.780331 -0.275995
v 0.226392 2.447232 0.096318
v 0.551566 2.124587 0.001159
v 0.625422 2.193910 -0.458146
v 0.141419 2.624634 -0.315708
v 0.342390 2.425229 -0.374523
v 0.078899 2.529243 -0.124521
v 0.269518 2.327295 -0.022006
v 0.407395 2.194409 -0.166617
vt 0.378906 0.126816
vt 0.378906 0.126816
vt 0.378906 0.126816
vt 0.378906 0.126816
vt 0.378906 0.126816
vt 0.378906 0.126816
vt 0.378906 0.126816
vt 0.378906 0.126816
vt 0.378906 0.126816
vt 0.378906 0.126816
vt 0.378906 0.126816
vt 0.378906 0.126816
vt 0.378906 0.126816
vt 0.378906 0.126816
vt 0.378906 0.126816
vt 0.378906 0.126816
vt 0.378906 0.126816
vt 0.378906 0.126816
vt 0.378906 0.126816
vt 0.378906 0.126816
vt 0.378906 0.126816
vt 0.378906 0.126816
vt 0.378906 0.126816
vt 0.378906 0.126816
vt 0.378906 0.126816
vt 0.378906 0.126816
vt 0.378906 0.126816
vt 0.378906 0.126816
vt 0.378906 0.126816
vt 0.378906 0.126816
vt 0.378906 0.126816
vt 0.378906 0.126816
vt 0.378906 0.126816
vt 0.378906 0.126816
vt 0.378906 0.126816
vt 0.378906 0.126816
vt 0.378906 0.126816
vt 0.378906 0.126816
vt 0.378906 0.126816
vt 0.378906 0.126816
vt 0.378906 0.126816
vt 0.378906 0.126816
vn 0.6754 0.7346 -0.0645
vn 0.5625 0.6490 -0.5122
vn 0.2932 0.9508 0.0995
vn 0.2162 0.4761 -0.8524
vn 0.5180 0.2559 -0.8162
vn 0.3612 0.8348 0.4155
vn 0.8627 -0.1204 0.4911
vn 0.7648 0.0313 0.6436
vn 0.8615 -0.0209 0.5074
vn 0.9906 -0.0686 0.1181
vn 0.1874 0.2622 -0.9466
vn -0.1653 0.7559 -0.6334
vn -0.0267 0.7281 -0.6849
vn -0.1558 0.7837 -0.6013
vn -0.0593 0.5273 0.8476
vn -0.0627 0.8401 0.5388
vn -0.2548 0.5988 0.7593
vn 0.5071 -0.5795 0.6380
vn 0.2930 -0.2155 0.9315
vn 0.1941 -0.5644 0.8023
vn 0.6446 -0.6273 -0.4371
vn 0.6836 -0.7297 0.0154
vn 0.4554 -0.8192 -0.3487
vn -0.0610 0.6788 -0.7318
vn -0.5575 0.8127 -0.1697
vn -0.6135 0.7746 -0.1533
vn -0.7984 0.5889 -0.1252
vn -0.1864 0.3587 0.9147
vn 0.3700 -0.8935 0.2545
vn 0.3466 -0.7352 -0.5825
vn -0.4469 -0.6265 -0.6386
vn -0.5444 -0.4479 -0.7092
vn -0.6023 -0.5414 -0.5867
vn -0.9141 0.3996 -0.0680
vn -0.8102 0.5747 -0.1153
vn -0.9123 0.4028 -0.0744
vn -0.5706 -0.7123 0.4087
vn -0.6964 -0.3543 0.6240
vn -0.6972 -0.6961 0.1714
vn 0.0113 -0.9854 -0.1699
vn -0.1216 -0.9815 -0.1476
vn -0.2111 -0.9594 -0.1870
vn -0.4694 -0.4174 -0.7781
vn -0.6311 -0.5902 -0.5034
vn -0.6650 -0.4980 -0.5565
vn -0.6789 -0.7137 -0.1721
vn -0.6775 -0.6388 -0.3646
vn 0.0368 -0.9409 -0.3366
vn -0.5750 -0.7678 0.2827
vn -0.6330 -0.6477 -0.4240
vn -0.8406 -0.3034 0.4488
vn -0.8086 -0.0224 0.5879
vn -0.9228 0.3783 -0.0728
vn -0.8306 0.5529 -0.0659
vn -0.1705 -0.4831 -0.8588
vn -0.1755 -0.5154 -0.8388
vn 0.0521 -0.7259 0.6859
vn -0.1559 -0.4822 0.8621
vn -0.1217 -0.2284 0.9659
vn -0.6813 0.0013 0.7320
vn -0.5480 -0.4592 -0.6991
vn -0.3620 -0.3081 -0.8798
vn 0.2867 -0.0118 0.9580
vn -0.7807 0.1517 0.6063
vn -0.3243 0.7062 0.6294
vn 0.0639 0.9975 -0.0298
vn -0.1873 0.9640 0.1886
vn -0.1404 0.7997 -0.5838
vn 0.3757 0.1159 -0.9195
vn 0.5285 0.0185 -0.8487
vn 0.9768 -0.0029 0.2142
vn 0.9858 -0.1289 -0.1072
vn 0.8756 -0.0033 0.4830
vn 0.7835 0.0424 0.6199
vn 0.2963 0.0022 0.9551
vn 0.7472 0.4626 -0.4772
vn 0.6812 0.4410 -0.5843
vn 0.1694 0.9555 -0.2414
vn 0.0620 0.9773 -0.2026
s 1
f 52/52/41 65/53/42 64/54/43
f 53/55/44 65/53/42 67/56/45
f 52/52/41 64/54/43 69/57/46
f 52/52/47 69/57/48 71/58/49
f 52/52/47 71/58/49 68/59/50
f 53/55/44 67/56/45 74/60/51
f 54/61/52 66/62/53 76/63/54
f 55/64/55 70/65/56 78/66/57
f 56/67/58 72/68/59 80/69/60
f 57/70/61 73/71/62 82/72/63
f 53/55/44 74/60/51 77/73/64
f 54/61/65 76/63/66 79/74/67
f 55/64/55 78/66/57 81/75/68
f 56/67/58 80/69/60 83/76/69
f 57/70/61 82/72/63 75/77/70
f 58/78/71 84/79/72 89/80/73
f 59/81/74 85/82/75 91/83/76
f 60/84/77 86/85/78 92/86/79
f 61/87/80 87/88/81 93/89/82
f 62/90/83 88/91/84 90/92/85
f 90/92/85 93/89/86 63/93/87
f 90/92/85 88/91/84 93/89/86
f 88/91/88 61/87/80 93/89/82
f 93/89/86 92/86/79 63/93/87
f 93/89/86 87/88/89 92/86/79
f 87/88/89 60/84/77 92/86/79
f 92/86/79 91/83/90 63/93/87
f 92/86/79 86/85/78 91/83/91
f 86/85/78 59/81/92 91/83/91
f 91/83/90 89/80/73 63/93/87
f 91/83/76 85/82/75 89/80/93
f 85/82/75 58/78/94 89/80/93
f 89/80/73 90/92/85 63/93/87
f 89/80/73 84/79/72 90/92/85
f 84/79/72 62/90/83 90/92/85
f 75/77/95 88/91/96 62/90/83
f 75/77/70 82/72/63 88/91/88
f 82/72/63 61/87/80 88/91/88
f 83/76/69 87/88/81 61/87/80
f 83/76/69 80/69/60 87/88/97
f 80/69/60 60/84/98 87/88/97
f 81/75/99 86/85/78 60/84/98
f 81/75/99 78/66/100 86/85/78
f 78/66/100 59/81/92 86/85/78
f 79/74/67 85/82/75 59/81/74
f 79/74/67 76/63/66 85/82/75
f 76/63/66 58/78/94 85/82/75
f 77/73/101 84/79/72 58/78/71
f 77/73/101 74/60/102 84/79/72
f 74/60/102 62/90/83 84/79/72
f 82/72/63 83/76/69 61/87/80
f 82/72/63 73/71/62 83/76/69
f 73/71/62 56/67/58 83/76/69
f 80/69/60 81/75/99 60/84/98
f 80/69/60 72/68/59 81/75/99
f 72/68/59 55/64/103 81/75/99
f 78/66/100 79/74/104 59/81/92
f 78/66/57 70/65/56 79/74/105
f 70/65/56 54/61/106 79/74/107
f 76/63/54 77/73/64 58/78/108
f 76/63/54 66/62/53 77/73/64
f 66/62/53 53/55/44 77/73/64
f 74/60/102 75/77/95 62/90/83
f 74/60/51 67/56/45 75/77/109
f 67/56/45 57/70/110 75/77/109
f 68/59/50 73/71/111 57/70/112
f 68/59/50 71/58/49 73/71/111
f 71/58/49 56/67/113 73/71/111
f 71/58/49 72/68/114 56/67/113
f 71/58/49 69/57/48 72/68/114
f 69/57/115 55/64/103 72/68/59
f 69/57/46 70/65/56 55/64/55
f 69/57/46 64/54/43 70/65/56
f 64/54/43 54/61/106 70/65/56
f 67/56/45 68/59/116 57/70/117
f 67/56/45 65/53/42 68/59/116
f 65/53/42 52/52/41 68/59/116
f 64/54/43 66/62/118 54/61/106
f 64/54/43 65/53/119 66/62/118
f 65/53/42 53/55/44 66/62/53
o Icosphere.007_Icosphere.014
v -0.761276 1.822858 0.005395
v -0.444221 2.078380 0.396882
v -1.113791 2.110610 0.487052
v -1.392256 2.103728 -0.043650
v -0.912480 2.078379 -0.601209
v -0.393248 2.026391 -0.384815
v -0.571793 2.585811 0.570248
v -1.121895 2.601304 0.396882
v -1.121895 2.601304 -0.365587
v -0.479383 2.578693 -0.681493
v -0.189980 2.578691 -0.064636
v -0.531986 2.849617 0.108622
v -1.060441 1.874746 0.232772
v -0.625726 1.931465 0.153764
v -0.658158 1.993797 0.485789
v -0.354340 2.004938 0.176327
v -0.583896 1.842516 -0.208435
v -1.029237 1.842517 0.015647
v -1.306621 2.064706 0.232773
v -0.859130 1.842516 -0.346929
v -1.072858 2.063909 -0.345884
v -0.659967 2.032475 -0.571015
v -0.163462 2.317231 0.159447
v -0.163462 2.317231 -0.288720
v -0.863577 2.378260 0.602896
v -0.507821 2.339842 0.602314
v -1.382683 2.409274 0.077797
v -1.259606 2.372072 0.456861
v -1.058295 2.339842 -0.571019
v -1.330475 2.442316 -0.334472
v -0.488615 2.300688 -0.619252
v -0.783058 2.339842 -0.709512
v -0.286553 2.624597 0.297942
v -0.906149 2.647208 0.602310
v -1.251103 2.706707 0.067123
v -0.895711 2.572124 -0.633502
v -0.286553 2.624597 -0.427214
v -0.533510 2.768665 0.321710
v -0.382316 2.722049 0.037297
v -0.895985 2.857274 0.291882
v -0.955269 2.919430 -0.151706
v -0.532733 2.814557 -0.427212
vt 0.113281 0.126816
vt 0.113281 0.126816
vt 0.113281 0.126816
vt 0.113281 0.126816
vt 0.113281 0.126816
vt 0.113281 0.126816
vt 0.113281 0.126816
vt 0.113281 0.126816
vt 0.113281 0.126816
vt 0.113281 0.126816
vt 0.113281 0.126816
vt 0.113281 0.126816
vt 0.113281 0.126816
vt 0.113281 0.126816
vt 0.113281 0.126816
vt 0.113281 0.126816
vt 0.113281 0.126816
vt 0.113281 0.126816
vt 0.113281 0.126816
vt 0.113281 0.126816
vt 0.113281 0.126816
vt 0.113281 0.126816
vt 0.113281 0.126816
vt 0.113281 0.126816
vt 0.113281 0.126816
vt 0.113281 0.126816
vt 0.113281 0.126816
vt 0.113281 0.126816
vt 0.113281 0.126816
vt 0.113281 0.126816
vt 0.113281 0.126816
vt 0.113281 0.126816
vt 0.113281 0.126816
vt 0.113281 0.126816
vt 0.113281 0.126816
vt 0.113281 0.126816
vt 0.113281 0.126816
vt 0.113281 0.126816
vt 0.113281 0.126816
vt 0.113281 0.126816
vt 0.113281 0.126816
vt 0.113281 0.126816
vn 0.1502 -0.9698 0.1921
vn 0.2590 -0.9211 0.2906
vn 0.0861 -0.9652 0.2469
vn 0.3380 -0.8957 0.2889
vn 0.2202 -0.9161 0.3350
vn -0.0703 -0.9950 0.0713
vn -0.0167 -0.9986 -0.0511
vn 0.0326 -0.9974 -0.0647
vn 0.6722 -0.3953 0.6260
vn 0.8070 -0.5641 0.1746
vn 0.9452 -0.1606 0.2843
vn -0.2281 -0.1993 0.9530
vn -0.0568 -0.3185 0.9462
vn -0.1265 -0.1190 0.9848
vn -0.9944 -0.0108 0.1055
vn -0.8322 -0.3224 0.4511
vn -0.9908 0.1200 0.0624
vn -0.7271 -0.4867 -0.4843
vn -0.6623 -0.5693 -0.4872
vn -0.7194 -0.4159 -0.5563
vn 0.5207 -0.5655 -0.6396
vn 0.2273 -0.6140 -0.7559
vn 0.5141 -0.2681 -0.8148
vn 0.7081 -0.0897 0.7004
vn -0.3441 -0.0724 0.9362
vn -0.9660 0.2370 -0.1033
vn -0.4447 -0.1459 -0.8837
vn -0.5510 0.1720 -0.8166
vn -0.3246 0.0836 -0.9422
vn 0.7072 -0.1654 -0.6874
vn 0.4478 0.5869 0.6746
vn 0.7459 0.5131 0.4248
vn 0.3698 0.8220 0.4331
vn -0.6674 0.5851 0.4608
vn -0.5986 0.6363 0.4865
vn -0.5463 0.7578 0.3568
vn -0.6037 0.5892 -0.5371
vn -0.6685 0.6517 -0.3584
vn -0.5153 0.7011 -0.4930
vn -0.0906 0.7206 -0.6874
vn -0.3850 0.4691 -0.7948
vn -0.1463 0.7590 -0.6345
vn 0.5938 0.8045 -0.0110
vn 0.6010 0.7981 -0.0435
vn 0.6136 0.7884 0.0435
vn 0.4694 0.8814 -0.0524
vn 0.4257 0.8930 0.1463
vn 0.5224 0.6770 -0.5184
vn 0.1505 0.9884 0.0203
vn 0.1378 0.9219 0.3622
vn -0.4803 0.8575 0.1843
vn -0.6724 0.6384 0.3746
vn 0.1743 0.7980 0.5769
vn 0.9713 0.2036 -0.1226
vn 0.9363 0.2785 -0.2141
vn 0.9777 0.2102 -0.0000
vn 0.7487 -0.0767 -0.6584
vn 0.8004 -0.1562 -0.5788
vn -0.1146 0.2583 -0.9592
vn -0.5553 0.6201 -0.5541
vn -0.9124 0.4007 -0.0834
vn -0.8051 0.4488 0.3878
vn -0.7423 0.5471 0.3868
vn -0.1126 -0.0157 0.9935
vn 0.0491 0.0875 0.9950
vn 0.1859 -0.3132 -0.9313
vn 0.2592 -0.2192 -0.9406
vn -0.0058 -0.5717 -0.8205
vn -0.6627 -0.4328 -0.6111
vn -0.5859 -0.6046 -0.5395
vn -0.8636 -0.2040 0.4610
vn -0.5017 -0.5973 0.6258
vn -0.0087 -0.0953 0.9954
vn 0.4899 -0.4618 0.7394
vn 0.8175 -0.5737 -0.0497
vn 0.7379 -0.6705 -0.0768
vn 0.2837 -0.8237 -0.4910
vn 0.1416 -0.8136 -0.5639
vn -0.6685 -0.6436 -0.3727
vn -0.5728 -0.7280 -0.3767
vn -0.6015 -0.7975 0.0477
vn -0.5962 -0.8008 0.0578
vn -0.5901 -0.8044 0.0693
vn -0.6106 -0.7914 0.0297
vn -0.3505 -0.7222 0.5963
vn 0.6559 -0.7512 -0.0742
vn 0.3253 -0.9089 0.2608
vn -0.1878 -0.7394 0.6465
vn 0.3071 -0.9294 0.2045
s 1
f 94/94/120 107/95/121 106/96/122
f 95/97/123 107/95/121 109/98/124
f 94/94/120 106/96/122 111/99/125
f 94/94/120 111/99/125 113/100/126
f 94/94/120 113/100/126 110/101/127
f 95/97/128 109/98/129 116/102/130
f 96/103/131 108/104/132 118/105/133
f 97/106/134 112/107/135 120/108/136
f 98/109/137 114/110/138 122/111/139
f 99/112/140 115/113/141 124/114/142
f 95/97/128 116/102/130 119/115/143
f 96/103/131 118/105/133 121/116/144
f 97/106/134 120/108/136 123/117/145
f 98/109/146 122/111/147 125/118/148
f 99/112/140 124/114/142 117/119/149
f 100/120/150 126/121/151 131/122/152
f 101/123/153 127/124/154 133/125/155
f 102/126/156 128/127/157 134/128/158
f 103/129/159 129/130/160 135/131/161
f 104/132/162 130/133/163 132/134/164
f 132/134/164 135/131/165 105/135/166
f 132/134/164 130/133/163 135/131/165
f 130/133/167 103/129/167 135/131/167
f 135/131/165 134/128/168 105/135/166
f 135/131/161 129/130/160 134/128/158
f 129/130/160 102/126/156 134/128/158
f 134/128/168 133/125/169 105/135/166
f 134/128/170 128/127/171 133/125/155
f 128/127/171 101/123/153 133/125/155
f 133/125/169 131/122/152 105/135/166
f 133/125/169 127/124/172 131/122/152
f 127/124/172 100/120/150 131/122/152
f 131/122/152 132/134/164 105/135/166
f 131/122/152 126/121/151 132/134/164
f 126/121/151 104/132/162 132/134/164
f 117/119/173 130/133/174 104/132/175
f 117/119/149 124/114/142 130/133/176
f 124/114/142 103/129/177 130/133/176
f 125/118/148 129/130/160 103/129/178
f 125/118/148 122/111/147 129/130/160
f 122/111/147 102/126/156 129/130/160
f 123/117/179 128/127/157 102/126/156
f 123/117/145 120/108/136 128/127/180
f 120/108/181 101/123/153 128/127/171
f 121/116/182 127/124/154 101/123/153
f 121/116/144 118/105/133 127/124/183
f 118/105/133 100/120/184 127/124/183
f 119/115/143 126/121/151 100/120/150
f 119/115/143 116/102/130 126/121/151
f 116/102/130 104/132/175 126/121/151
f 124/114/142 125/118/185 103/129/186
f 124/114/142 115/113/141 125/118/185
f 115/113/141 98/109/187 125/118/185
f 122/111/147 123/117/179 102/126/156
f 122/111/139 114/110/138 123/117/188
f 114/110/138 97/106/189 123/117/188
f 120/108/181 121/116/182 101/123/153
f 120/108/136 112/107/135 121/116/190
f 112/107/135 96/103/191 121/116/190
f 118/105/133 119/115/192 100/120/184
f 118/105/133 108/104/132 119/115/192
f 108/104/193 95/97/128 119/115/143
f 116/102/130 117/119/173 104/132/175
f 116/102/130 109/98/129 117/119/194
f 109/98/129 99/112/195 117/119/194
f 110/101/196 115/113/141 99/112/140
f 110/101/196 113/100/197 115/113/141
f 113/100/197 98/109/187 115/113/141
f 113/100/198 114/110/138 98/109/137
f 113/100/198 111/99/199 114/110/138
f 111/99/199 97/106/189 114/110/138
f 111/99/200 112/107/201 97/106/202
f 111/99/200 106/96/203 112/107/201
f 106/96/204 96/103/191 112/107/135
f 109/98/129 110/101/205 99/112/195
f 109/98/124 107/95/121 110/101/206
f 107/95/121 94/94/120 110/101/206
f 106/96/204 108/104/207 96/103/191
f 106/96/122 107/95/121 108/104/208
f 107/95/121 95/97/123 108/104/208
